<?xml version="1.0" encoding="utf-8"?>
<!-- Generator: Adobe Illustrator 19.0.0, SVG Export Plug-In . SVG Version: 6.00 Build 0)  -->
<svg version="1.1" id="Layer_1" xmlns="http://www.w3.org/2000/svg" xmlns:xlink="http://www.w3.org/1999/xlink" x="0px" y="0px"
	 viewBox="0 0 500 500" style="enable-background:new 0 0 500 500;" xml:space="preserve">
<style type="text/css">
	.st0{fill:url(#XMLID_3_);stroke:#000000;stroke-width:1.4595;stroke-miterlimit:10;}
</style>
<linearGradient id="XMLID_3_" gradientUnits="userSpaceOnUse" x1="244" y1="443" x2="244" y2="25.8333">
	<stop  offset="0" style="stop-color:#FFF33B"/>
	<stop  offset="5.948725e-002" style="stop-color:#FFE029"/>
	<stop  offset="0.1303" style="stop-color:#FFD218"/>
	<stop  offset="0.2032" style="stop-color:#FEC90F"/>
	<stop  offset="0.2809" style="stop-color:#FDC70C"/>
	<stop  offset="0.6685" style="stop-color:#F3903F"/>
	<stop  offset="0.8876" style="stop-color:#ED683C"/>
	<stop  offset="1" style="stop-color:#E93E3A"/>
</linearGradient>
<path id="XMLID_1_" class="st0" d="M208.4,83.6c29.8,47.1,59.5,94.2,89.1,141.4c-12.1-4-24.1-7.9-36.2-11.9
	c27.9,47.2,55.7,94.4,83.6,141.6c-10.9-4.8-21.9-9.6-32.8-14.4c20.9,34.2,41.8,68.4,62.7,102.7c-39-43-78.1-85.9-117.1-128.9
	c12,1.5,24,3.1,35.9,4.6c-36.2-45.4-72.4-90.8-108.5-136.2c13.4,3.4,26.8,6.8,40.1,10.2c-37.3-44.8-74.7-89.5-112-134.3
	c19.5-10.9,39.1-21.7,58.6-32.6C184,45.1,196.2,64.3,208.4,83.6z"/>
</svg>
