<?xml version="1.0" encoding="utf-8"?>
<!-- Generator: Adobe Illustrator 19.0.0, SVG Export Plug-In . SVG Version: 6.00 Build 0)  -->
<svg version="1.1" id="Layer_1" xmlns="http://www.w3.org/2000/svg" xmlns:xlink="http://www.w3.org/1999/xlink" x="0px" y="0px"
	 viewBox="0 0 500 500" style="enable-background:new 0 0 500 500;" xml:space="preserve">
<style type="text/css">
	.st0{fill:#E6E7E8;stroke:#000000;stroke-width:1.5587;stroke-miterlimit:10;}
	.st1{fill:#BCBEC0;}
	.st2{fill:#E6E7E8;stroke:#000000;stroke-width:1.4354;stroke-miterlimit:10;}
</style>
<path id="XMLID_10_" class="st0" d="M375.9,225.8c0.5-21.8-14.6-41-36.1-48.4c1.8-4.6,2.4-9.4,1.7-14.2
	c-2.6-16.7-21.2-27.8-44.3-28.3c-9.5-13.8-26.1-23.3-45.1-24c-18.5-0.7-35,7-45.2,19.3c-5.7-2.1-11.8-3.3-18.3-3.6
	c-30.2-1.2-55.2,20.1-55.9,47.5c-0.1,2.6,0.1,5.2,0.5,7.7c-13.7,8.5-22.8,22.7-23.1,39.1c-0.6,27.4,23.3,50.6,53.6,51.7
	c3.2,0.1,6.3,0,9.4-0.4c9.5,13.6,26,22.9,44.9,23.6c13.8,0.5,26.4-3.6,36.2-10.8c8.7,5.8,19.2,9.4,30.7,9.9
	c20,0.8,37.6-8.2,47.5-22.3C356.7,268.4,375.4,249.4,375.9,225.8z"/>
<path id="XMLID_3_" class="st1" d="M339.4,249.5c-9,15.5-26.4,26.5-47,27.6c-11.8,0.7-23-2-32.4-7.1c-9.5,8.4-22.1,13.9-36.3,14.7
	c-19.5,1.1-37.1-6.9-48-19.9c-3.1,0.7-6.3,1.1-9.6,1.3c-23.3,1.3-43.9-10.3-53.6-28.1c4.5,24.6,28.7,42.5,56.8,40.9
	c3.2-0.2,6.3-0.6,9.3-1.3c10.6,12.6,27.7,20.3,46.5,19.3c13.7-0.8,26-6.1,35.2-14.2c9.1,5,19.9,7.6,31.4,6.9
	c19.9-1.1,36.8-11.8,45.5-26.8c22.2-5.9,38.4-24.1,39.7-45.4C370.8,232.8,356.9,244.9,339.4,249.5z"/>
<path id="XMLID_4_" class="st0" d="M474.8,265.1c-2.7-21.7-20.4-37.9-42.7-41.6c1.1-4.9,1-9.8-0.5-14.4c-5.1-16-25-23.8-47.9-20.2
	c-11.4-12-29.1-18.5-48-15.8c-18.3,2.5-33.5,13-41.7,27c-5.9-1.1-12.2-1.2-18.5-0.3c-30,4.1-51.5,29.5-48.1,56.7
	c0.3,2.6,0.9,5.1,1.6,7.5c-12.2,10.8-19.1,26.4-17.1,42.7c3.4,27.2,30.4,45.9,60.4,41.8c3.2-0.4,6.2-1.1,9.2-2
	c11.4,11.8,29,18.1,47.7,15.5c13.6-1.9,25.5-8.2,34.1-17c9.4,4.2,20.4,6,31.7,4.4c19.8-2.7,35.9-14.7,43.6-30.4
	C462.1,310.6,477.7,288.5,474.8,265.1z"/>
<path id="XMLID_2_" class="st1" d="M439.7,304.5c-7.9,16.2-24.5,28.5-44.9,31.4c-11.7,1.6-23-0.2-32.7-4.5
	c-8.9,9.1-21.1,15.6-35.2,17.6c-19.3,2.7-37.5-3.9-49.2-16c-3,0.9-6.2,1.6-9.5,2.1c-23.1,3.2-44.5-6.8-55.3-23.7
	c6.1,24.2,31.5,40.1,59.4,36.3c3.2-0.4,6.2-1.1,9.2-2c11.4,11.8,29,18.1,47.7,15.5c13.6-1.9,25.5-8.2,34.1-17
	c9.4,4.2,20.4,6,31.7,4.4c19.8-2.7,35.9-14.7,43.6-30.4c21.7-7.7,36.6-27.1,36.5-48.5C469.9,285.2,456.8,298.4,439.7,304.5z"/>
<path id="XMLID_6_" class="st2" d="M275.2,310c-0.9-20.8-15.5-38-34.9-43.5c1.3-4.5,1.6-9.2,0.6-13.7c-3.4-15.7-20.5-25-41-23.7
	c-9.3-12.4-24.5-20.3-41.4-19.6c-16.4,0.7-30.6,9.2-38.8,21.7c-5.2-1.6-10.7-2.3-16.4-2.1c-26.8,1.1-47.7,23.2-46.5,49.3
	c0.1,2.5,0.4,4.9,0.9,7.3c-11.6,9.1-18.7,23.3-18.1,38.9c1.1,26.2,23.8,46.5,50.6,45.4c2.8-0.1,5.6-0.5,8.3-1
	c9.3,12.2,24.4,19.9,41.2,19.2c12.2-0.5,23.2-5.4,31.4-13c8,4.9,17.6,7.6,27.8,7.2c17.7-0.7,32.8-10.6,40.7-24.8
	C260.8,352.1,276.2,332.6,275.2,310z"/>
<path id="XMLID_5_" class="st1" d="M241.3,344.1c-8.1,14.6-23.7,24.8-42,25.5c-10.5,0.4-20.4-2.3-28.7-7.4
	c-8.5,7.8-19.8,12.9-32.4,13.4c-17.3,0.7-32.9-7.2-42.5-19.8c-2.8,0.6-5.6,1-8.5,1.1c-20.7,0.8-38.9-10.6-47.4-27.7
	c3.7,23.5,25.1,41.1,50.1,40.1c2.8-0.1,5.6-0.5,8.3-1c9.3,12.2,24.4,19.9,41.2,19.2c12.2-0.5,23.2-5.4,31.4-13
	c8,4.9,17.6,7.6,27.8,7.2c17.7-0.7,32.8-10.6,40.7-24.8c19.8-5.2,34.3-22.3,35.7-42.6C269.4,328.7,257,340,241.3,344.1z"/>
</svg>
