<?xml version="1.0" encoding="utf-8"?>
<!-- Generator: Adobe Illustrator 19.0.0, SVG Export Plug-In . SVG Version: 6.00 Build 0)  -->
<svg version="1.1" xmlns="http://www.w3.org/2000/svg" xmlns:xlink="http://www.w3.org/1999/xlink" x="0px" y="0px"
	 viewBox="0 0 1080 1080" style="enable-background:new 0 0 1080 1080;" xml:space="preserve">
<style type="text/css">
	.st0{fill:none;}
	.st1{fill:#8F774E;}
	.st2{fill:#715725;}
	.st3{fill:#EAC294;stroke:#000000;stroke-width:0.5873;stroke-miterlimit:10;}
	.st4{fill:#EAC294;stroke:#000000;stroke-width:0.8535;stroke-miterlimit:10;}
	.st5{fill:#DA1C5C;stroke:#000000;stroke-width:0.5873;stroke-miterlimit:10;}
	.st6{fill:#58595B;stroke:#000000;stroke-width:3.966;stroke-miterlimit:10;}
	.st7{fill:#6D6E71;stroke:#000000;stroke-width:4.503;stroke-miterlimit:10;}
	.st8{fill:url(#XMLID_77_);stroke:#000000;stroke-width:3.912;stroke-miterlimit:10;}
	.st9{fill:url(#XMLID_78_);stroke:#000000;stroke-width:3.912;stroke-miterlimit:10;}
	.st10{fill:url(#XMLID_79_);stroke:#000000;stroke-width:3.912;stroke-miterlimit:10;}
	.st11{fill:url(#XMLID_80_);stroke:#000000;stroke-width:7;stroke-miterlimit:10;}
	.st12{fill:url(#XMLID_81_);}
	.st13{fill:url(#XMLID_82_);}
	.st14{fill:url(#XMLID_83_);}
	.st15{fill:url(#XMLID_84_);}
	.st16{fill:url(#XMLID_85_);}
	.st17{fill:url(#XMLID_86_);}
	.st18{fill:url(#XMLID_87_);}
	.st19{fill:url(#XMLID_88_);}
	.st20{fill:url(#XMLID_89_);}
	.st21{fill:url(#XMLID_90_);}
	.st22{fill:url(#XMLID_91_);}
	.st23{fill:url(#XMLID_92_);}
	.st24{fill:url(#XMLID_93_);}
	.st25{fill:url(#XMLID_94_);}
	.st26{fill:#FFF200;}
	.st27{fill:none;stroke:#000000;stroke-width:2.9236;stroke-miterlimit:10;}
	.st28{fill:none;stroke:#000000;stroke-width:2.7499;stroke-miterlimit:10;}
	.st29{fill:none;stroke:#000000;stroke-width:2.5303;stroke-miterlimit:10;}
	.st30{fill:none;stroke:#000000;stroke-width:2.1089;stroke-miterlimit:10;}
	.st31{fill:none;stroke:#000000;stroke-width:1.5403;stroke-miterlimit:10;}
	.st32{fill:none;stroke:#000000;stroke-width:0.9169;stroke-miterlimit:10;}
</style>
<pattern  width="75.7" height="57" patternUnits="userSpaceOnUse" id="Herringbone_2_Color" viewBox="0.1 -67.4 75.7 57" style="overflow:visible;">
	<g>
		<polygon class="st0" points="0.1,-67.4 75.8,-67.4 75.8,-10.4 0.1,-10.4 		"/>
		<g>
			<polygon class="st1" points="75.7,0 75.7,-28.7 151.4,-28.7 151.4,0 			"/>
		</g>
		<g>
			<polygon class="st1" points="0,0 0,-28.7 75.8,-28.7 75.8,0 			"/>
			<path class="st2" d="M10.4-7.7c-0.8-0.7-0.8-1.8-0.2-2.6c0.7-0.8,1.8-0.8,2.6-0.2l5.5,4.8c0.8,0.7,0.8,1.8,0.2,2.6
				c-0.7,0.8-1.8,0.8-2.6,0.2L10.4-7.7z"/>
			<path class="st2" d="M29.4-7.7c-0.8-0.7-0.8-1.8-0.2-2.6c0.7-0.8,1.8-0.8,2.6-0.2l5.5,4.8C38-5.1,38-3.9,37.4-3.2
				c-0.7,0.8-1.8,0.8-2.6,0.2L29.4-7.7z"/>
			<path class="st2" d="M48.3-7.7c-0.8-0.7-0.8-1.8-0.2-2.6c0.7-0.8,1.8-0.8,2.6-0.2l5.5,4.8c0.8,0.7,0.8,1.8,0.2,2.6
				c-0.7,0.8-1.8,0.8-2.6,0.2L48.3-7.7z"/>
			<path class="st2" d="M67.2-7.7c-0.8-0.7-0.8-1.8-0.2-2.6c0.7-0.8,1.8-0.8,2.6-0.2L75-5.7c0.8,0.7,0.8,1.8,0.2,2.6
				c-0.7,0.8-1.8,0.8-2.6,0.2L67.2-7.7z"/>
			<path class="st2" d="M10.4-14.9c-0.8-0.7-0.8-1.8-0.2-2.6c0.7-0.8,1.8-0.8,2.6-0.2l5.5,4.8c0.8,0.7,0.8,1.8,0.2,2.6
				c-0.7,0.8-1.8,0.8-2.6,0.2L10.4-14.9z"/>
			<path class="st2" d="M29.4-14.9c-0.8-0.7-0.8-1.8-0.2-2.6c0.7-0.8,1.8-0.8,2.6-0.2l5.5,4.8c0.8,0.7,0.8,1.8,0.2,2.6
				c-0.7,0.8-1.8,0.8-2.6,0.2L29.4-14.9z"/>
			<path class="st2" d="M48.3-14.9c-0.8-0.7-0.8-1.8-0.2-2.6c0.7-0.8,1.8-0.8,2.6-0.2l5.5,4.8c0.8,0.7,0.8,1.8,0.2,2.6
				c-0.7,0.8-1.8,0.8-2.6,0.2L48.3-14.9z"/>
			<path class="st2" d="M67.2-14.9c-0.8-0.7-0.8-1.8-0.2-2.6c0.7-0.8,1.8-0.8,2.6-0.2l5.5,4.8c0.8,0.7,0.8,1.8,0.2,2.6
				c-0.7,0.8-1.8,0.8-2.6,0.2L67.2-14.9z"/>
			<path class="st2" d="M10.4-22c-0.8-0.7-0.8-1.8-0.2-2.6c0.7-0.8,1.8-0.8,2.6-0.2l5.5,4.8c0.8,0.7,0.8,1.8,0.2,2.6
				c-0.7,0.8-1.8,0.8-2.6,0.2L10.4-22z"/>
			<path class="st2" d="M29.4-22c-0.8-0.7-0.8-1.8-0.2-2.6c0.7-0.8,1.8-0.8,2.6-0.2l5.5,4.8c0.8,0.7,0.8,1.8,0.2,2.6
				c-0.7,0.8-1.8,0.8-2.6,0.2L29.4-22z"/>
			<path class="st2" d="M48.3-22c-0.8-0.7-0.8-1.8-0.2-2.6c0.7-0.8,1.8-0.8,2.6-0.2l5.5,4.8c0.8,0.7,0.8,1.8,0.2,2.6
				c-0.7,0.8-1.8,0.8-2.6,0.2L48.3-22z"/>
			<path class="st2" d="M67.2-22c-0.8-0.7-0.8-1.8-0.2-2.6c0.7-0.8,1.8-0.8,2.6-0.2L75-20c0.8,0.7,0.8,1.8,0.2,2.6
				c-0.7,0.8-1.8,0.8-2.6,0.2L67.2-22z"/>
			<path class="st2" d="M8.8-11.3C9.6-12,9.7-13.1,9-13.9c-0.7-0.8-1.8-0.8-2.6-0.2L1-9.3C0.2-8.6,0.2-7.5,0.8-6.7
				C1.5-6,2.6-5.9,3.4-6.5L8.8-11.3z"/>
			<path class="st2" d="M27.8-11.3c0.8-0.7,0.8-1.8,0.2-2.6c-0.7-0.8-1.8-0.8-2.6-0.2l-5.5,4.8c-0.8,0.7-0.8,1.8-0.2,2.6
				c0.7,0.8,1.8,0.8,2.6,0.2L27.8-11.3z"/>
			<path class="st2" d="M8.8-25.3c0.8-0.7,0.8-1.8,0.2-2.6c-0.7-0.8-1.8-0.8-2.6-0.2L1-23.2c-0.8,0.7-0.8,1.8-0.2,2.6
				c0.7,0.8,1.8,0.8,2.6,0.2L8.8-25.3z"/>
			<path class="st2" d="M8.8-18.4C9.6-19.1,9.7-20.2,9-21c-0.7-0.8-1.8-0.8-2.6-0.2L1-16.4c-0.8,0.7-0.8,1.8-0.2,2.6
				c0.7,0.8,1.8,0.8,2.6,0.2L8.8-18.4z"/>
			<path class="st2" d="M27.8-25.3c0.8-0.7,0.8-1.8,0.2-2.6c-0.7-0.8-1.8-0.8-2.6-0.2l-5.5,4.8c-0.8,0.7-0.8,1.8-0.2,2.6
				c0.7,0.8,1.8,0.8,2.6,0.2L27.8-25.3z"/>
			<path class="st2" d="M27.8-18.4c0.8-0.7,0.8-1.8,0.2-2.6c-0.7-0.8-1.8-0.8-2.6-0.2l-5.5,4.8c-0.8,0.7-0.8,1.8-0.2,2.6
				c0.7,0.8,1.8,0.8,2.6,0.2L27.8-18.4z"/>
			<path class="st2" d="M46.7-11.3c0.8-0.7,0.8-1.8,0.2-2.6c-0.7-0.8-1.8-0.8-2.6-0.2l-5.5,4.8c-0.8,0.7-0.8,1.8-0.2,2.6
				c0.7,0.8,1.8,0.8,2.6,0.2L46.7-11.3z"/>
			<path class="st2" d="M65.6-11.3c0.8-0.7,0.8-1.8,0.2-2.6c-0.7-0.8-1.8-0.8-2.6-0.2l-5.5,4.8c-0.8,0.7-0.8,1.8-0.2,2.6
				c0.7,0.8,1.8,0.8,2.6,0.2L65.6-11.3z"/>
			<path class="st2" d="M46.7-25.3c0.8-0.7,0.8-1.8,0.2-2.6c-0.7-0.8-1.8-0.8-2.6-0.2l-5.5,4.8c-0.8,0.7-0.8,1.8-0.2,2.6
				c0.7,0.8,1.8,0.8,2.6,0.2L46.7-25.3z"/>
			<path class="st2" d="M46.7-18.4c0.8-0.7,0.8-1.8,0.2-2.6c-0.7-0.8-1.8-0.8-2.6-0.2l-5.5,4.8c-0.8,0.7-0.8,1.8-0.2,2.6
				c0.7,0.8,1.8,0.8,2.6,0.2L46.7-18.4z"/>
			<path class="st2" d="M65.6-25.3c0.8-0.7,0.8-1.8,0.2-2.6c-0.7-0.8-1.8-0.8-2.6-0.2l-5.5,4.8c-0.8,0.7-0.8,1.8-0.2,2.6
				c0.7,0.8,1.8,0.8,2.6,0.2L65.6-25.3z"/>
			<path class="st2" d="M65.6-18.4c0.8-0.7,0.8-1.8,0.2-2.6c-0.7-0.8-1.8-0.8-2.6-0.2l-5.5,4.8c-0.8,0.7-0.8,1.8-0.2,2.6
				c0.7,0.8,1.8,0.8,2.6,0.2L65.6-18.4z"/>
		</g>
		<g>
			<polygon class="st1" points="75.7,-28.5 75.7,-57.2 151.4,-57.2 151.4,-28.5 			"/>
		</g>
		<g>
			<polygon class="st1" points="0,-28.5 0,-57.2 75.8,-57.2 75.8,-28.5 			"/>
			<path class="st2" d="M10.4-29.1c-0.8-0.7-0.8-1.8-0.2-2.6c0.7-0.8,1.8-0.8,2.6-0.2l5.5,4.8c0.8,0.7,0.8,1.8,0.2,2.6
				c-0.7,0.8-1.8,0.8-2.6,0.2L10.4-29.1z"/>
			<path class="st2" d="M29.4-29.1c-0.8-0.7-0.8-1.8-0.2-2.6c0.7-0.8,1.8-0.8,2.6-0.2l5.5,4.8c0.8,0.7,0.8,1.8,0.2,2.6
				c-0.7,0.8-1.8,0.8-2.6,0.2L29.4-29.1z"/>
			<path class="st2" d="M48.3-29.1c-0.8-0.7-0.8-1.8-0.2-2.6c0.7-0.8,1.8-0.8,2.6-0.2l5.5,4.8c0.8,0.7,0.8,1.8,0.2,2.6
				c-0.7,0.8-1.8,0.8-2.6,0.2L48.3-29.1z"/>
			<path class="st2" d="M67.2-29.1c-0.8-0.7-0.8-1.8-0.2-2.6c0.7-0.8,1.8-0.8,2.6-0.2l5.5,4.8c0.8,0.7,0.8,1.8,0.2,2.6
				c-0.7,0.8-1.8,0.8-2.6,0.2L67.2-29.1z"/>
			<path class="st2" d="M10.4-36.2c-0.8-0.7-0.8-1.8-0.2-2.6c0.7-0.8,1.8-0.8,2.6-0.2l5.5,4.8c0.8,0.7,0.8,1.8,0.2,2.6
				c-0.7,0.8-1.8,0.8-2.6,0.2L10.4-36.2z"/>
			<path class="st2" d="M29.4-36.2c-0.8-0.7-0.8-1.8-0.2-2.6c0.7-0.8,1.8-0.8,2.6-0.2l5.5,4.8c0.8,0.7,0.8,1.8,0.2,2.6
				c-0.7,0.8-1.8,0.8-2.6,0.2L29.4-36.2z"/>
			<path class="st2" d="M48.3-36.2c-0.8-0.7-0.8-1.8-0.2-2.6c0.7-0.8,1.8-0.8,2.6-0.2l5.5,4.8c0.8,0.7,0.8,1.8,0.2,2.6
				c-0.7,0.8-1.8,0.8-2.6,0.2L48.3-36.2z"/>
			<path class="st2" d="M67.2-36.2c-0.8-0.7-0.8-1.8-0.2-2.6c0.7-0.8,1.8-0.8,2.6-0.2l5.5,4.8c0.8,0.7,0.8,1.8,0.2,2.6
				c-0.7,0.8-1.8,0.8-2.6,0.2L67.2-36.2z"/>
			<path class="st2" d="M10.4-43.4c-0.8-0.7-0.8-1.8-0.2-2.6c0.7-0.8,1.8-0.8,2.6-0.2l5.5,4.8c0.8,0.7,0.8,1.8,0.2,2.6
				c-0.7,0.8-1.8,0.8-2.6,0.2L10.4-43.4z"/>
			<path class="st2" d="M29.4-43.4c-0.8-0.7-0.8-1.8-0.2-2.6c0.7-0.8,1.8-0.8,2.6-0.2l5.5,4.8c0.8,0.7,0.8,1.8,0.2,2.6
				c-0.7,0.8-1.8,0.8-2.6,0.2L29.4-43.4z"/>
			<path class="st2" d="M48.3-43.4c-0.8-0.7-0.8-1.8-0.2-2.6c0.7-0.8,1.8-0.8,2.6-0.2l5.5,4.8c0.8,0.7,0.8,1.8,0.2,2.6
				c-0.7,0.8-1.8,0.8-2.6,0.2L48.3-43.4z"/>
			<path class="st2" d="M67.2-43.4c-0.8-0.7-0.8-1.8-0.2-2.6c0.7-0.8,1.8-0.8,2.6-0.2l5.5,4.8c0.8,0.7,0.8,1.8,0.2,2.6
				c-0.7,0.8-1.8,0.8-2.6,0.2L67.2-43.4z"/>
			<path class="st2" d="M10.4-50.5c-0.8-0.7-0.8-1.8-0.2-2.6c0.7-0.8,1.8-0.8,2.6-0.2l5.5,4.8c0.8,0.7,0.8,1.8,0.2,2.6
				c-0.7,0.8-1.8,0.8-2.6,0.2L10.4-50.5z"/>
			<path class="st2" d="M29.4-50.5c-0.8-0.7-0.8-1.8-0.2-2.6c0.7-0.8,1.8-0.8,2.6-0.2l5.5,4.8c0.8,0.7,0.8,1.8,0.2,2.6
				c-0.7,0.8-1.8,0.8-2.6,0.2L29.4-50.5z"/>
			<path class="st2" d="M48.3-50.5c-0.8-0.7-0.8-1.8-0.2-2.6c0.7-0.8,1.8-0.8,2.6-0.2l5.5,4.8c0.8,0.7,0.8,1.8,0.2,2.6
				c-0.7,0.8-1.8,0.8-2.6,0.2L48.3-50.5z"/>
			<path class="st2" d="M67.2-50.5c-0.8-0.7-0.8-1.8-0.2-2.6c0.7-0.8,1.8-0.8,2.6-0.2l5.5,4.8c0.8,0.7,0.8,1.8,0.2,2.6
				c-0.7,0.8-1.8,0.8-2.6,0.2L67.2-50.5z"/>
			<path class="st2" d="M8.8-32.7c0.8-0.7,0.8-1.8,0.2-2.6c-0.7-0.8-1.8-0.8-2.6-0.2L1-30.7c-0.8,0.7-0.8,1.8-0.2,2.6
				c0.7,0.8,1.8,0.8,2.6,0.2L8.8-32.7z"/>
			<path class="st2" d="M27.8-32.7c0.8-0.7,0.8-1.8,0.2-2.6c-0.7-0.8-1.8-0.8-2.6-0.2l-5.5,4.8c-0.8,0.7-0.8,1.8-0.2,2.6
				c0.7,0.8,1.8,0.8,2.6,0.2L27.8-32.7z"/>
			<path class="st2" d="M8.8-39.8c0.8-0.7,0.8-1.8,0.2-2.6c-0.7-0.8-1.8-0.8-2.6-0.2L1-37.8c-0.8,0.7-0.8,1.8-0.2,2.6
				c0.7,0.8,1.8,0.8,2.6,0.2L8.8-39.8z"/>
			<path class="st2" d="M27.8-39.8c0.8-0.7,0.8-1.8,0.2-2.6c-0.7-0.8-1.8-0.8-2.6-0.2l-5.5,4.8c-0.8,0.7-0.8,1.8-0.2,2.6
				c0.7,0.8,1.8,0.8,2.6,0.2L27.8-39.8z"/>
			<path class="st2" d="M46.7-32.7c0.8-0.7,0.8-1.8,0.2-2.6c-0.7-0.8-1.8-0.8-2.6-0.2l-5.5,4.8c-0.8,0.7-0.8,1.8-0.2,2.6
				c0.7,0.8,1.8,0.8,2.6,0.2L46.7-32.7z"/>
			<path class="st2" d="M65.6-32.7c0.8-0.7,0.8-1.8,0.2-2.6c-0.7-0.8-1.8-0.8-2.6-0.2l-5.5,4.8c-0.8,0.7-0.8,1.8-0.2,2.6
				c0.7,0.8,1.8,0.8,2.6,0.2L65.6-32.7z"/>
			<path class="st2" d="M8.8-53.8c0.8-0.7,0.8-1.8,0.2-2.6c-0.7-0.8-1.8-0.8-2.6-0.2L1-51.7c-0.8,0.7-0.8,1.8-0.2,2.6
				c0.7,0.8,1.8,0.8,2.6,0.2L8.8-53.8z"/>
			<path class="st2" d="M8.8-46.9c0.8-0.7,0.8-1.8,0.2-2.6c-0.7-0.8-1.8-0.8-2.6-0.2L1-44.9c-0.8,0.7-0.8,1.8-0.2,2.6
				c0.7,0.8,1.8,0.8,2.6,0.2L8.8-46.9z"/>
			<path class="st2" d="M27.8-53.8c0.8-0.7,0.8-1.8,0.2-2.6c-0.7-0.8-1.8-0.8-2.6-0.2l-5.5,4.8c-0.8,0.7-0.8,1.8-0.2,2.6
				c0.7,0.8,1.8,0.8,2.6,0.2L27.8-53.8z"/>
			<path class="st2" d="M27.8-46.9c0.8-0.7,0.8-1.8,0.2-2.6c-0.7-0.8-1.8-0.8-2.6-0.2l-5.5,4.8c-0.8,0.7-0.8,1.8-0.2,2.6
				c0.7,0.8,1.8,0.8,2.6,0.2L27.8-46.9z"/>
			<path class="st2" d="M46.7-39.8c0.8-0.7,0.8-1.8,0.2-2.6c-0.7-0.8-1.8-0.8-2.6-0.2l-5.5,4.8c-0.8,0.7-0.8,1.8-0.2,2.6
				c0.7,0.8,1.8,0.8,2.6,0.2L46.7-39.8z"/>
			<path class="st2" d="M65.6-39.8c0.8-0.7,0.8-1.8,0.2-2.6c-0.7-0.8-1.8-0.8-2.6-0.2l-5.5,4.8c-0.8,0.7-0.8,1.8-0.2,2.6
				c0.7,0.8,1.8,0.8,2.6,0.2L65.6-39.8z"/>
			<path class="st2" d="M46.7-53.8c0.8-0.7,0.8-1.8,0.2-2.6c-0.7-0.8-1.8-0.8-2.6-0.2l-5.5,4.8c-0.8,0.7-0.8,1.8-0.2,2.6
				c0.7,0.8,1.8,0.8,2.6,0.2L46.7-53.8z"/>
			<path class="st2" d="M46.7-46.9c0.8-0.7,0.8-1.8,0.2-2.6c-0.7-0.8-1.8-0.8-2.6-0.2l-5.5,4.8c-0.8,0.7-0.8,1.8-0.2,2.6
				c0.7,0.8,1.8,0.8,2.6,0.2L46.7-46.9z"/>
			<path class="st2" d="M65.6-53.8c0.8-0.7,0.8-1.8,0.2-2.6c-0.7-0.8-1.8-0.8-2.6-0.2l-5.5,4.8c-0.8,0.7-0.8,1.8-0.2,2.6
				c0.7,0.8,1.8,0.8,2.6,0.2L65.6-53.8z"/>
			<path class="st2" d="M65.6-46.9c0.8-0.7,0.8-1.8,0.2-2.6c-0.7-0.8-1.8-0.8-2.6-0.2l-5.5,4.8c-0.8,0.7-0.8,1.8-0.2,2.6
				c0.7,0.8,1.8,0.8,2.6,0.2L65.6-46.9z"/>
		</g>
		<g>
			<polygon class="st1" points="75.7,-57 75.7,-85.7 151.4,-85.7 151.4,-57 			"/>
		</g>
		<g>
			<polygon class="st1" points="0,-57 0,-85.7 75.8,-85.7 75.8,-57 			"/>
			<path class="st2" d="M10.4-57.6c-0.8-0.7-0.8-1.8-0.2-2.6c0.7-0.8,1.8-0.8,2.6-0.2l5.5,4.8c0.8,0.7,0.8,1.8,0.2,2.6
				c-0.7,0.8-1.8,0.8-2.6,0.2L10.4-57.6z"/>
			<path class="st2" d="M29.4-57.6c-0.8-0.7-0.8-1.8-0.2-2.6c0.7-0.8,1.8-0.8,2.6-0.2l5.5,4.8c0.8,0.7,0.8,1.8,0.2,2.6
				c-0.7,0.8-1.8,0.8-2.6,0.2L29.4-57.6z"/>
			<path class="st2" d="M48.3-57.6c-0.8-0.7-0.8-1.8-0.2-2.6c0.7-0.8,1.8-0.8,2.6-0.2l5.5,4.8c0.8,0.7,0.8,1.8,0.2,2.6
				c-0.7,0.8-1.8,0.8-2.6,0.2L48.3-57.6z"/>
			<path class="st2" d="M67.2-57.6c-0.8-0.7-0.8-1.8-0.2-2.6c0.7-0.8,1.8-0.8,2.6-0.2l5.5,4.8c0.8,0.7,0.8,1.8,0.2,2.6
				c-0.7,0.8-1.8,0.8-2.6,0.2L67.2-57.6z"/>
			<path class="st2" d="M10.4-64.7c-0.8-0.7-0.8-1.8-0.2-2.6c0.7-0.8,1.8-0.8,2.6-0.2l5.5,4.8c0.8,0.7,0.8,1.8,0.2,2.6
				c-0.7,0.8-1.8,0.8-2.6,0.2L10.4-64.7z"/>
			<path class="st2" d="M29.4-64.7c-0.8-0.7-0.8-1.8-0.2-2.6c0.7-0.8,1.8-0.8,2.6-0.2l5.5,4.8c0.8,0.7,0.8,1.8,0.2,2.6
				c-0.7,0.8-1.8,0.8-2.6,0.2L29.4-64.7z"/>
			<path class="st2" d="M48.3-64.7c-0.8-0.7-0.8-1.8-0.2-2.6c0.7-0.8,1.8-0.8,2.6-0.2l5.5,4.8c0.8,0.7,0.8,1.8,0.2,2.6
				c-0.7,0.8-1.8,0.8-2.6,0.2L48.3-64.7z"/>
			<path class="st2" d="M67.2-64.7c-0.8-0.7-0.8-1.8-0.2-2.6c0.7-0.8,1.8-0.8,2.6-0.2l5.5,4.8c0.8,0.7,0.8,1.8,0.2,2.6
				c-0.7,0.8-1.8,0.8-2.6,0.2L67.2-64.7z"/>
			<path class="st2" d="M10.4-71.9c-0.8-0.7-0.8-1.8-0.2-2.6c0.7-0.8,1.8-0.8,2.6-0.2l5.5,4.8c0.8,0.7,0.8,1.8,0.2,2.6
				c-0.7,0.8-1.8,0.8-2.6,0.2L10.4-71.9z"/>
			<path class="st2" d="M29.4-71.9c-0.8-0.7-0.8-1.8-0.2-2.6c0.7-0.8,1.8-0.8,2.6-0.2l5.5,4.8c0.8,0.7,0.8,1.8,0.2,2.6
				c-0.7,0.8-1.8,0.8-2.6,0.2L29.4-71.9z"/>
			<path class="st2" d="M48.3-71.9c-0.8-0.7-0.8-1.8-0.2-2.6c0.7-0.8,1.8-0.8,2.6-0.2l5.5,4.8c0.8,0.7,0.8,1.8,0.2,2.6
				c-0.7,0.8-1.8,0.8-2.6,0.2L48.3-71.9z"/>
			<path class="st2" d="M67.2-71.9c-0.8-0.7-0.8-1.8-0.2-2.6c0.7-0.8,1.8-0.8,2.6-0.2l5.5,4.8c0.8,0.7,0.8,1.8,0.2,2.6
				c-0.7,0.8-1.8,0.8-2.6,0.2L67.2-71.9z"/>
			<path class="st2" d="M8.8-61.2C9.6-61.8,9.7-63,9-63.7c-0.7-0.8-1.8-0.8-2.6-0.2L1-59.2c-0.8,0.7-0.8,1.8-0.2,2.6
				c0.7,0.8,1.8,0.8,2.6,0.2L8.8-61.2z"/>
			<path class="st2" d="M27.8-61.2c0.8-0.7,0.8-1.8,0.2-2.6c-0.7-0.8-1.8-0.8-2.6-0.2l-5.5,4.8c-0.8,0.7-0.8,1.8-0.2,2.6
				c0.7,0.8,1.8,0.8,2.6,0.2L27.8-61.2z"/>
			<path class="st2" d="M8.8-68.3C9.6-69,9.7-70.1,9-70.9c-0.7-0.8-1.8-0.8-2.6-0.2L1-66.3c-0.8,0.7-0.8,1.8-0.2,2.6
				c0.7,0.8,1.8,0.8,2.6,0.2L8.8-68.3z"/>
			<path class="st2" d="M27.8-68.3c0.8-0.7,0.8-1.8,0.2-2.6c-0.7-0.8-1.8-0.8-2.6-0.2l-5.5,4.8c-0.8,0.7-0.8,1.8-0.2,2.6
				c0.7,0.8,1.8,0.8,2.6,0.2L27.8-68.3z"/>
			<path class="st2" d="M46.7-61.2c0.8-0.7,0.8-1.8,0.2-2.6c-0.7-0.8-1.8-0.8-2.6-0.2l-5.5,4.8c-0.8,0.7-0.8,1.8-0.2,2.6
				c0.7,0.8,1.8,0.8,2.6,0.2L46.7-61.2z"/>
			<path class="st2" d="M65.6-61.2c0.8-0.7,0.8-1.8,0.2-2.6c-0.7-0.8-1.8-0.8-2.6-0.2l-5.5,4.8c-0.8,0.7-0.8,1.8-0.2,2.6
				c0.7,0.8,1.8,0.8,2.6,0.2L65.6-61.2z"/>
			<path class="st2" d="M46.7-68.3c0.8-0.7,0.8-1.8,0.2-2.6c-0.7-0.8-1.8-0.8-2.6-0.2l-5.5,4.8c-0.8,0.7-0.8,1.8-0.2,2.6
				c0.7,0.8,1.8,0.8,2.6,0.2L46.7-68.3z"/>
			<path class="st2" d="M65.6-68.3c0.8-0.7,0.8-1.8,0.2-2.6c-0.7-0.8-1.8-0.8-2.6-0.2l-5.5,4.8c-0.8,0.7-0.8,1.8-0.2,2.6
				c0.7,0.8,1.8,0.8,2.6,0.2L65.6-68.3z"/>
		</g>
	</g>
</pattern>
<g id="Layer_4">
	<circle id="XMLID_28_" class="st3" cx="631.2" cy="819.2" r="14.9"/>
	<ellipse id="XMLID_32_" class="st4" cx="616.3" cy="845" rx="18.3" ry="25.8"/>
	<circle id="XMLID_44_" class="st3" cx="461.8" cy="819.2" r="14.9"/>
	<ellipse id="XMLID_43_" class="st4" cx="454.9" cy="849" rx="18.3" ry="25.8"/>
	<circle id="XMLID_34_" class="st3" cx="517.3" cy="819.2" r="14.9"/>
	<ellipse id="XMLID_33_" class="st4" cx="522.3" cy="841.6" rx="18.3" ry="25.8"/>
	<rect id="XMLID_31_" x="544.3" y="831" class="st5" width="32" height="15.8"/>
</g>
<g id="Layer_3">
	<path id="XMLID_26_" class="st6" d="M435.4,650.3c0,0,61.6,64.7,62.3,84.7h85.2c0,0,28.8-74,54.4-84.7
		C662.8,639.7,447.2,639.7,435.4,650.3z"/>
	<rect id="XMLID_10_" x="497.6" y="735" class="st7" width="85.4" height="17.8"/>
	<pattern  id="XMLID_77_" xlink:href="#Herringbone_2_Color" patternTransform="matrix(0.978 0 0 0.978 -135.7827 -125.4996)">
	</pattern>
	<rect id="XMLID_27_" x="432.9" y="846.8" class="st8" width="214.8" height="75"/>
	<pattern  id="XMLID_78_" xlink:href="#Herringbone_2_Color" patternTransform="matrix(0.978 0 0 0.978 -135.7827 -125.4996)">
	</pattern>
	<line id="XMLID_29_" class="st9" x1="500.5" y1="752.8" x2="500.5" y2="846.8"/>
	<pattern  id="XMLID_79_" xlink:href="#Herringbone_2_Color" patternTransform="matrix(0.978 0 0 0.978 -136.616 -125.4996)">
	</pattern>
	<line id="XMLID_30_" class="st10" x1="579.7" y1="752.8" x2="579.7" y2="846.8"/>
</g>
<g id="Layer_1">
	
		<radialGradient id="XMLID_80_" cx="540" cy="359.5398" r="297.8823" gradientTransform="matrix(1 0 0 4 0 -1078.6194)" gradientUnits="userSpaceOnUse">
		<stop  offset="0" style="stop-color:#090909"/>
		<stop  offset="9.477133e-002" style="stop-color:#1C1C1C"/>
		<stop  offset="0.2261" style="stop-color:#2E2E2E"/>
		<stop  offset="0.3818" style="stop-color:#3B3B3B"/>
		<stop  offset="0.5837" style="stop-color:#434343"/>
		<stop  offset="1" style="stop-color:#454545"/>
	</radialGradient>
	<path id="XMLID_4_" class="st11" d="M271,443.8c16.7,38,105.8,143,111.2,147.7c2.8,2.5,29,30.5,52.9,56c33.5-3.6,68.7-5.4,105-5.4
		c33.9,0,66.9,1.7,98.5,4.8c26.2-25.3,89-84.3,125.5-135.4c45-63,62-105,78-167s-6-136-29-171s-62-61-104-79S562,71.9,562,71.9
		s-79-2.9-138,8.6s-99,31-130.5,61.5s-46.5,64.5-55,95s-6.5,65.5-2.5,97S254.3,405.8,271,443.8z"/>
	<g id="Layer_2">
		<linearGradient id="XMLID_81_" gradientUnits="userSpaceOnUse" x1="822.6108" y1="236.2793" x2="736.2232" y2="86.6515">
			<stop  offset="0" style="stop-color:#F15D62"/>
			<stop  offset="0.4316" style="stop-color:#B03738"/>
			<stop  offset="1" style="stop-color:#710A0C"/>
		</linearGradient>
		<path id="XMLID_9_" class="st12" d="M838.3,227.3c-5.3,0.1-10.5,0.2-15.8,0.3c-6.4-24.2-15.9-41.7-22.9-52.6
			c-2.1-3.3-8.6-13.1-18.7-24.5c-10.6-11.9-20.1-19.6-23.4-22.3c-6.2-5-9.4-7.5-14.2-10.3c-16.9-9.8-17.1-9.9-17.1-9.9
			c-1.1-1.5-2.2-2.7-2.9-3.5c-1.5-1.6-2.3-2.2-3.8-3.8c-1.1-1.2-2-2.3-2.5-3c0.2,0.1,0.4,0.1,0.7,0.2c10.5,3.9,21.6,9.1,32.8,16
			C804.9,147.5,828.6,200.4,838.3,227.3z"/>
		<linearGradient id="XMLID_82_" gradientUnits="userSpaceOnUse" x1="406.6667" y1="525.3334" x2="266" y2="525.3333">
			<stop  offset="0" style="stop-color:#F15D62"/>
			<stop  offset="0.4316" style="stop-color:#B03738"/>
			<stop  offset="1" style="stop-color:#710A0C"/>
		</linearGradient>
		<path id="XMLID_17_" class="st13" d="M406.7,613.7c-40.1-38.9-81.2-85.9-119-142.3c-7.7-11.4-14.9-22.8-21.7-34
			c5.2-0.1,10.4-0.2,15.7-0.3c5.9,12.1,15.2,29.7,28.3,50c12.1,18.8,21.9,31.2,39,53C360.4,554.5,379.4,578.8,406.7,613.7z"/>
		<linearGradient id="XMLID_83_" gradientUnits="userSpaceOnUse" x1="674.093" y1="520.5" x2="811.3333" y2="520.5">
			<stop  offset="0" style="stop-color:#F15D62"/>
			<stop  offset="0.4316" style="stop-color:#B03738"/>
			<stop  offset="1" style="stop-color:#710A0C"/>
		</linearGradient>
		<path id="XMLID_25_" class="st14" d="M674.1,608.3c8.7-9.3,20.3-22.1,33.2-37.7c12.7-15.2,33.5-40.4,56.3-76
			c9.5-14.8,21.2-34.3,33.3-58c4.8-1.3,9.6-2.7,14.3-4c-10.3,19.9-22.7,41.1-37.7,63C740.7,543.8,705.2,580.8,674.1,608.3z"/>
		<linearGradient id="XMLID_84_" gradientUnits="userSpaceOnUse" x1="612.3333" y1="531.1667" x2="772.6667" y2="531.1667">
			<stop  offset="0" style="stop-color:#F15D62"/>
			<stop  offset="0.4316" style="stop-color:#B03738"/>
			<stop  offset="1" style="stop-color:#710A0C"/>
		</linearGradient>
		<path id="XMLID_24_" class="st15" d="M623.3,645.7c-3.7-0.9-7.3-1.8-11-2.7c6.2-8.7,15.2-21.5,26-37c27.1-38.8,40.8-58.5,48.7-72
			c17.1-29.5,27.6-54.3,33-67.3c8-19.3,14-36.3,18.3-50c4.2,1.6,10,3.3,17,4c6.9,0.7,12.9,0.3,17.3-0.3c-3.7,9.5-8.7,21.5-15,35
			c-11.2,23.9-21.5,41.7-26.7,50.3c-11.5,19.3-21.3,33-29,43.7c-16.4,22.8-30.1,39.2-52.7,66C638.5,628.2,629.5,638.7,623.3,645.7z"
			/>
		<linearGradient id="XMLID_85_" gradientUnits="userSpaceOnUse" x1="623.8333" y1="643.6667" x2="623.8333" y2="407">
			<stop  offset="0" style="stop-color:#F15D62"/>
			<stop  offset="0.4316" style="stop-color:#B03738"/>
			<stop  offset="1" style="stop-color:#710A0C"/>
		</linearGradient>
		<path id="XMLID_21_" class="st16" d="M588,643.7c-6.9-1.4-13.8-2.9-20.7-4.3c5-17.5,9.2-33.2,12.7-46.7
			c5.1-19.7,11.4-44.2,18-76.7c2.5-12.3,5.5-27.2,8.7-47c3.9-24.8,6.2-46,7.7-62c8.6,1.6,18.8,2.8,30.3,3c13.8,0.2,25.9-1.2,35.7-3
			c-3,13.4-7.7,32.3-14.3,54.7c-4.7,15.8-18.2,59.2-43,113.3C614.6,593.3,603.1,616.8,588,643.7z"/>
		<linearGradient id="XMLID_86_" gradientUnits="userSpaceOnUse" x1="609.625" y1="580.375" x2="470.625" y2="441.375">
			<stop  offset="0" style="stop-color:#F15D62"/>
			<stop  offset="0.4316" style="stop-color:#B03738"/>
			<stop  offset="1" style="stop-color:#710A0C"/>
		</linearGradient>
		<path id="XMLID_20_" class="st17" d="M550,640c-6.8,0.3-13.7,0.7-20.5,1c-0.1-2.9-0.3-7.2-0.6-12.5c-2.1-38.8-4.8-58.7-7.5-88.5
			c-4-43.6-5.5-78.8-6.5-101.3c-0.7-16.8-1.1-30.7-1.4-40.3c6.3,1.5,14.2,2.9,23.5,3c12.5,0.2,23-1.9,30.5-4
			c-3.3,63.2-6.3,105.7-8.3,130.6c-1,13-3.4,42.2-5.9,72C552,617,550.8,630.9,550,640z"/>
		<linearGradient id="XMLID_87_" gradientUnits="userSpaceOnUse" x1="535.9958" y1="625.7611" x2="406.0102" y2="400.6193">
			<stop  offset="0" style="stop-color:#F15D62"/>
			<stop  offset="0.4316" style="stop-color:#B03738"/>
			<stop  offset="1" style="stop-color:#710A0C"/>
		</linearGradient>
		<path id="XMLID_19_" class="st18" d="M511.3,640c-7.7,1.3-15.3,2.7-23,4c-14.9-30.5-26.8-56.9-35.8-77.8
			c-12.5-29.2-20.2-49.2-27.3-67.9c-10.7-28.2-15.3-42.4-19.3-58.7c-3.5-14.3-5.7-26.4-7-35c9.6,1.2,21.1,1.9,34,1.3
			c12.2-0.5,22.9-2.1,32-4c0.6,7.7,1.5,16.5,2.6,26.3c0,0,1.3,11.8,3,23.6c1,7.4,5.3,36.2,17.8,92c2.6,11.7,5.1,21.9,9.9,42.3
			C503.6,608.6,508.2,627.1,511.3,640z"/>
		<linearGradient id="XMLID_88_" gradientUnits="userSpaceOnUse" x1="463.25" y1="530.9583" x2="306.3333" y2="530.9583">
			<stop  offset="0" style="stop-color:#F15D62"/>
			<stop  offset="0.4316" style="stop-color:#B03738"/>
			<stop  offset="1" style="stop-color:#710A0C"/>
		</linearGradient>
		<path id="XMLID_18_" class="st19" d="M463.3,642.8c-4.7,0.5-9.3,1-14,1.5c-4.6-6.5-11.8-16.3-21-28c-9.7-12.3-13-15.7-21-26
			c-4.8-6.2-9.2-12.2-24-33.8c-14.9-21.7-22.3-32.6-28.8-42.5c-16-24.7-24.8-38.5-34.3-58.3c-6.6-13.8-11.1-25.6-13.9-33.4
			c3.5,1.1,9.8,2.6,17.7,1.7c8.4-1,14.5-4.3,17.7-6.3c1.1,4.7,2.8,11.4,5.3,19.3c3.9,12.1,7.8,20.8,12.3,30.8
			c1.4,3.1,6.3,13.9,14.3,29c5.5,10.3,9.2,16.7,17,30.3c21.4,37.1,17.8,31.5,23.3,40.5c11.2,18.6,20.9,33.1,34,52.5
			C454.2,629.6,459.6,637.4,463.3,642.8z"/>
		<linearGradient id="XMLID_89_" gradientUnits="userSpaceOnUse" x1="676.3333" y1="168.9745" x2="793" y2="168.9745">
			<stop  offset="0" style="stop-color:#F15D62"/>
			<stop  offset="0.4316" style="stop-color:#B03738"/>
			<stop  offset="1" style="stop-color:#710A0C"/>
		</linearGradient>
		<path id="XMLID_16_" class="st20" d="M793,238.7c-5.7-1.3-10.6-1.9-14.3-2.2c-6.3-0.5-12-1-19.1,0.6c-2.7,0.6-4.8,1.3-6.3,1.9
			c-1.1-7.7-2.9-18.1-6.2-30c-3.7-13.4-9.8-34.8-24.9-57.8c-14.6-22.3-32-37.5-45.9-47.3c1.3-1.1,3.1-2.5,5.5-3.5
			c5.9-2.5,11.3-1.4,13.5-0.8c9.8,5.7,22.2,14.1,35.2,25.8c6.9,6.2,18.6,17,30.3,34c12.7,18.6,18.8,35.2,23.3,47.6
			C788.5,219.6,791.2,230.5,793,238.7z"/>
		<linearGradient id="XMLID_90_" gradientUnits="userSpaceOnUse" x1="591" y1="176.8261" x2="691" y2="176.8261">
			<stop  offset="0" style="stop-color:#F15D62"/>
			<stop  offset="0.4316" style="stop-color:#B03738"/>
			<stop  offset="1" style="stop-color:#710A0C"/>
		</linearGradient>
		<path id="XMLID_15_" class="st21" d="M691,250.7c-10.2-1.3-22.9-2.1-37.3-1c-12.6,0.9-23.6,3-32.7,5.3
			c-0.1-16.4-1.2-29.9-2.3-39.7c-0.9-8.5-2-15.6-3.6-25.7c-2-13-3-19.6-4.8-28.3c-1.9-9.2-4-18.9-8.2-31
			c-3.6-10.4-7.6-19.1-11.1-25.9c4-2,10.1-4.4,18-5.3c10.7-1.2,19.3,1,24,2.7c4.7,4.4,11.1,10.9,17.7,19.7
			c2.4,3.2,13.6,18.3,22.7,42.7c5.1,13.6,7.1,23.7,10.7,41.3C687.7,223.7,689.8,239.2,691,250.7z"/>
		<linearGradient id="XMLID_91_" gradientUnits="userSpaceOnUse" x1="511.5" y1="177.7708" x2="568.625" y2="177.7708">
			<stop  offset="0" style="stop-color:#F15D62"/>
			<stop  offset="0.4316" style="stop-color:#B03738"/>
			<stop  offset="1" style="stop-color:#710A0C"/>
		</linearGradient>
		<path id="XMLID_14_" class="st22" d="M568.6,250.9c-7.7-1.1-16.9-2-27.4-1.7c-11.5,0.3-21.6,1.7-29.8,3.5c0.2-7.9,0.5-19.3,0.9-33
			c0.7-22.4,1.2-36.9,2.1-50.9c1-15.6,2.9-37.4,7.1-63.9c5.1-1.1,11.5-2,18.9-2c6.9,0,12.8,0.8,17.6,1.8c0.9,5.5,2.2,13.1,3.4,22.4
			c2.3,17.6,3.3,31.8,4.3,48.5c1.1,20.2,1.7,36.4,2.4,57C568.4,240.1,568.5,246.4,568.6,250.9z"/>
		<linearGradient id="XMLID_92_" gradientUnits="userSpaceOnUse" x1="388" y1="178.0776" x2="486" y2="178.0776">
			<stop  offset="0" style="stop-color:#F15D62"/>
			<stop  offset="0.4316" style="stop-color:#B03738"/>
			<stop  offset="1" style="stop-color:#710A0C"/>
		</linearGradient>
		<path id="XMLID_13_" class="st23" d="M458.8,254c-10.7-1.4-23.4-2.3-37.8-1.7c-12.4,0.5-23.5,2.1-33,3.9c1.7-23.8,5.5-43.3,9-57.8
			c4.7-19.1,9.7-32.4,11.5-37c2.7-6.9,5.6-14.5,10.5-23.5c4.9-9.1,13-21.9,26-35.5c4.1-1.4,12.9-3.8,23.7-1.8
			c8,1.5,13.9,4.8,17.3,7.1c-7.5,18.5-12,34.4-14.8,45.8c-5.4,22.6-7.3,41.2-9.8,65.8C460.1,233.7,459.2,245.7,458.8,254z"/>
		<linearGradient id="XMLID_93_" gradientUnits="userSpaceOnUse" x1="361.1487" y1="185.9692" x2="317.7048" y2="160.8869">
			<stop  offset="0" style="stop-color:#F15D62"/>
			<stop  offset="0.4316" style="stop-color:#B03738"/>
			<stop  offset="1" style="stop-color:#710A0C"/>
		</linearGradient>
		<path id="XMLID_12_" class="st24" d="M322.8,252.3c-5-1.7-12-3.6-20.5-4c-6.9-0.4-12.8,0.3-17.3,1.1c0.3-1.9,0.8-4.5,1.4-7.8
			c3.6-17.8,12.7-61,45.8-99.5c10.3-12.1,28.6-30.2,57.2-45c1.5,0,5.7,0.2,9.4,3.4c1.5,1.3,2.4,2.7,3,3.8
			c-20.2,15.3-33.1,31.2-40.9,42.3c-18.1,25.8-25.3,50-29.8,65.7C328.1,222.1,324.9,235.8,322.8,252.3z"/>
		<linearGradient id="XMLID_94_" gradientUnits="userSpaceOnUse" x1="293.25" y1="108.75" x2="293.25" y2="246.6667">
			<stop  offset="0" style="stop-color:#F15D62"/>
			<stop  offset="0.4316" style="stop-color:#B03738"/>
			<stop  offset="1" style="stop-color:#710A0C"/>
		</linearGradient>
		<path id="XMLID_11_" class="st25" d="M250.3,246.3c-1.1-0.1-2.3-0.2-3.6-0.3c-2.7-0.1-5.1,0.2-7.1,0.6c2.6-12,7.2-28.4,15.7-46.7
			c6.5-13.9,17.1-36,39.3-57.3c18-17.3,37.1-27.7,52.2-33.9c-23.6,13.4-39.2,28.8-48.5,39.6c-17.5,20.2-26.3,39.5-33,54.7
			C257.7,220.3,253.1,235.4,250.3,246.3z"/>
	</g>
	<g id="Layer_5">
		<g id="XMLID_47_">
			<path id="XMLID_48_" class="st26" d="M339.2,302.7h-17.6v-6.4h42.9v6.4c-6.3-0.7-12.5-1.4-18.8-2.1c-0.6,4.2-1.1,8.7-1.3,13.3
				c-0.9,15.3,0.4,28.9,2.4,40.3c-2.5,0-5,0-7.6,0c-1.7-12-2.4-25.8-1.2-41C338.3,309.7,338.7,306.1,339.2,302.7z"/>
			<path id="XMLID_50_" class="st26" d="M388.2,354.3l-0.6-5.2h-0.3c-2.3,3.3-6.8,6.2-12.7,6.2c-4.1,0-7.2-1.4-9.3-3.5
				c-0.5-0.5-3.7-3.8-3.5-8.5c0.3-5.1,4.6-8.2,7.5-10.3c6.6-4.8,13.8-5.2,17.6-5.2c0-0.3,0-0.6,0-0.9c-0.3-1.8-0.9-4.4-2.5-7.3
				c-1.1-1.9-2.1-3.8-3.7-4.7c-3.3-1.9-9,0.5-14.1,5.4l-1.7-5c3.4-2.2,8.4-3.7,13.7-3.7c12.7,0,15.8,8.7,15.8,17v15.6
				c0,3.6,0.2,7.1,0.7,10H388.2z M387.1,333.1c-8.3-0.2-17.6,1.3-17.6,9.4c0,4.9,3.3,7.2,7.1,7.2c5.4,0,8.9-3.4,10.1-7
				c0.3-0.8,0.4-1.6,0.4-2.4V333.1z"/>
			<path id="XMLID_53_" class="st26" d="M408.9,312.7c-0.5,2.3-1.5,8,1.1,14.3c1.3,3.1,3,5.4,4.4,6.9c0.6,2.2,1.1,4.4,1.7,6.8
				c0.5,2.2,1,4.3,1.4,6.5h0.3c0.9-4.2,2.3-8.7,3.7-13.2l6.8-21.2h6.4l6.4,20.8c1.5,5,2.8,9.4,3.7,13.6h0.3c0.2-1.8,0.5-4,1.3-6.5
				c0.8-2.4,1.7-4.4,2.6-5.9c0.4-3.1,0.5-6.8,0.3-11c-0.2-3.9-0.7-7.4-1.3-10.3c3.5-3,5.5-2.5,6-2.3c3.3,1,5.1,7.8,3.3,17
				c-3,8.8-6.1,17.6-9.1,26.3h-6.9l-6.4-19.9c-1.5-4.6-2.7-8.8-3.7-13.7h-0.2c-1,5-2.3,9.3-3.8,13.8l-6.7,19.8h-6.9
				c-3-4.1-7.3-10.8-10.1-20c-2.6-8.9-2.8-16.6-2.5-21.6C403.8,312.7,406.3,312.7,408.9,312.7z"/>
			<path id="XMLID_55_" class="st26" d="M491.9,354.3l-0.6-5.2H491c-1.3,1.6-4.6,5.5-10.4,7.2c-2.3,0.7-6.9,2-11.7-0.3
				c-3.2-1.6-7.2-5.2-7.3-9.7c-0.2-6.5,7.9-11,12.7-13.7c6.5-3.6,12.6-4.5,16.3-4.8c0-0.3,0-0.6,0-0.9c0-2.1-0.4-5.2-2.5-7.3
				c-2.1-2.1-5.1-2.3-6.9-2.3c-8.2-0.2-14.4,6.1-16.2,8c-0.6-2.2-1.1-4.4-1.7-6.7c4.5-3.6,8.8-5.2,11.4-5.9c1.7-0.5,4.2-1,7.5-1
				c12.7,0,15.8,8.7,15.8,17v15.6c0,3.6,0.2,7.1,0.7,10H491.9z M490.8,333.1c-11.9,1.7-20.3,5.9-20.8,10.9c-0.2,1.9,0.7,4.8,2.7,6
				c1.3,0.8,3.4,0.4,7.6-0.3c3-0.5,4.6-0.8,5.8-1.6c2.1-1.3,3.6-3.3,4.3-5.4c0.3-0.8,0.4-1.6,0.4-2.4V333.1z"/>
			<path id="XMLID_58_" class="st26" d="M510.3,325.7c0-4.9-0.1-9.1-0.3-13h6.6l0.3,8.2h0.3c1.9-5.6,6.4-9.1,11.5-9.1
				c0.9,0,1.5,0.1,2.1,0.3v7.1c-0.2,0-0.4-0.1-0.6-0.1c-1-0.2-1.8-0.1-1.9-0.1c-1.5,0-2.8-1.6-4.1-1.7c-3-0.3-7.6,6.8-6,11.5
				c0.2,0.5,0.2,0.5,0.5,1.2c1.1,2.8,0.9,5.5,0.5,7.3c0.5,2.5,1,6.3,0.3,10.7c-0.4,2.6-1,4.8-1.7,6.5c-2.5,0-5,0-7.5,0
				c0.9-3.2,1.8-7.3,2-12.2C512.6,335.3,511.5,329.6,510.3,325.7z"/>
			<path id="XMLID_60_" class="st26" d="M561.1,354.3l-0.6-5.2h-0.3c-1.3,6.6-5,12.1-10,13.4c-5.5,1.4-10.3-1.6-11.5-2.3
				c-2.5-1.5-5.4-4.3-6.2-7c-1.8-6.6,9-17.3,27.3-25.3V327c0-2.1-0.4-5.2-2.5-7.3c-2.1-2-4.9-2.5-6.9-2.3c-3.8,0.4-7.1,3.4-8.3,7.6
				c-0.7-0.5-1.3-1-2-1.5c1.3-6.2,5.9-10.9,11.4-11.7c5.8-0.9,10.2,2.8,11.1,3.6c3.6,3.3,4.8,8.4,4.8,13.4v15.6
				c0,3.6,0.2,7.1,0.7,10H561.1z M559.9,333.1c-5.3,1.6-9,4-11.1,5.7c-3.1,2.5-5.7,4.5-5.8,7.8c-0.1,2.4,1,5.3,3.5,6.8
				c0.3,0.2,2.8,1.7,5.7,1c3.4-0.9,5-4.3,5.7-5.7c0.8-1.7,1.1-3.5,1.7-6.1c0.2-1,0.3-1.8,0.4-2.4V333.1z"/>
			<path id="XMLID_63_" class="st26" d="M605.4,296.4c-1.6,8.8-3.2,17.5-4.8,26.3c10.8-1.3,21.6-2.7,32.3-4
				c0.2-7.4,0.3-14.9,0.5-22.3h7.6v58h-7.6c0.1-9.4,0.2-18.8,0.4-28.2c-10.7,0.8-21.4,1.6-32.2,2.3c1.3,8.6,2.5,17.2,3.8,25.8h-7.5
				c-2.1-6.5-4.2-15.6-4.4-26.5c-0.3-13.3,2.2-24.2,4.4-31.5C600.4,296.4,602.9,296.4,605.4,296.4z"/>
			<path id="XMLID_65_" class="st26" d="M663,301c0.1,2.6-1.8,4.6-4.8,4.6c-2.7,0-4.6-2.1-4.6-4.6c0-2.7,2-4.7,4.7-4.7
				C661.2,296.3,663,298.3,663,301z M654.6,354.3c-1.4-6.6-2.5-15.1-2.1-25c0.3-6.3,1.1-11.9,2.1-16.6c2.5,0,5,0,7.6,0
				c-0.5,4.1-0.8,8.5-1,13.1c-0.4,10.5,0.1,20,1,28.5C659.7,354.3,657.1,354.3,654.6,354.3z"/>
			<path id="XMLID_68_" class="st26" d="M708,309.8c0.9,1.8,2,4.6,2.4,8.2c0.3,2.4,0.1,4.5-0.1,6.1v24.2c0,4.8-0.5,8.6-1.5,11.7
				c-0.5,1.5-1.8,4.5-4.5,7.3c-2,2.1-4.3,3.5-13,6.5c-3.5,1.2-8.1,2.7-13.5,4.2c-0.9-1.8-1.9-3.7-2.8-5.5c8.2-0.6,12.3-2.2,14.5-3.7
				c0.4-0.2,1.3-0.9,2.8-1.8c3.8-2.4,5.5-3,6.5-3.8c1.9-1.3,3.9-4.2,4-11.4v-4.6h-0.2c-2.3,3.9-6.8,7-13.2,7
				c-10.3,0-17.7-8.8-17.7-20.3c0-14.1,9.2-22.1,18.7-22.1c7.2,0,11.2,3.8,13,7.2h0.2c-0.9-3-1.8-6-2.6-9c0.9,0.1,2,0.2,3.2,0.2
				C705.6,310.2,706.9,310,708,309.8z M702.8,329.1c0-1.3-0.1-2.4-0.4-3.4c-1.4-4.4-5.1-8-10.6-8c-7.2,0-12.4,6.1-12.4,15.7
				c0,8.2,4.1,15,12.3,15c4.6,0,8.9-2.9,10.5-7.7c0.4-1.3,0.6-2.8,0.6-4V329.1z"/>
			<path id="XMLID_71_" class="st26" d="M722.8,293.3h7.6v26h0.2c1.2-2.2,3.1-4,5.4-5.3c2.2-1.3,4.9-2.2,7.7-2.2
				c5.6,0,14.5,3.4,14.5,17.8v24.8h-7.6v-23.9c1.7-5.7,0.6-10.8-2.3-12.6c-2-1.2-4.4-0.6-7.3,0.2c-1.8,0.5-8,2.3-10.1,7.6
				c-0.4,1-0.5,2.2-0.5,3.6v25.1h-7.6V293.3z"/>
		</g>
		<path id="XMLID_45_" class="st26" d="M544.2,347.2"/>
		<path id="XMLID_46_" class="st26" d="M533.8,353.8"/>
		<path id="XMLID_73_" class="st26" d="M594.7,334.5"/>
		<path id="XMLID_74_" class="st26" d="M600.3,326.2"/>
		<path id="XMLID_75_" class="st26" d="M747.7,394.2"/>
	</g>
	<path id="XMLID_2_" class="st27" d="M284.5,443.8c15.8,38,100.5,143,105.6,147.7c2.7,2.5,27.6,30.5,50.2,56
		c31.9-3.6,65.3-5.4,99.7-5.4c32.2,0,63.5,1.7,93.6,4.8c24.8-25.3,84.5-84.3,119.2-135.4c42.7-63,58.9-105,74.1-167
		c15.2-62-5.7-136-27.5-171c-21.8-35-58.9-61-98.8-79c-39.9-18-139.6-22.6-139.6-22.6s-75-2.9-131.1,8.6s-94,31-123.9,61.5
		c-29.9,30.5-44.2,64.5-52.2,95s-6.2,65.5-2.4,97S268.7,405.8,284.5,443.8z"/>
	<path id="XMLID_3_" class="st28" d="M314.1,442.7c14,38,88.9,143,93.4,147.7c2.4,2.5,24.4,30.5,44.4,56c28.2-3.6,57.7-5.4,88.2-5.4
		c28.5,0,56.2,1.7,82.8,4.8c22-25.3,74.8-84.3,105.4-135.4c37.8-63,52.1-105,65.5-167c13.4-62-5-136-24.4-171s-52.1-61-87.4-79
		c-35.3-18-123.5-22.6-123.5-22.6s-66.4-2.9-116,8.6s-83.2,31-109.7,61.5c-26.5,30.5-39.1,64.5-46.2,95s-5.5,65.5-2.1,97
		S300.1,404.7,314.1,442.7z"/>
	<path id="XMLID_1_" class="st29" d="M348.7,442.7c11.9,38,75.3,143,79.1,147.7c2,2.5,20.7,30.5,37.6,56c23.9-3.6,48.9-5.4,74.7-5.4
		c24.1,0,47.6,1.7,70.1,4.8c18.6-25.3,63.3-84.3,89.3-135.4c32-63,44.1-105,55.5-167s-4.3-136-20.6-171s-44.1-61-74-79
		S555.7,70.8,555.7,70.8s-56.2-2.9-98.2,8.6s-70.4,31-92.8,61.5s-33.1,64.5-39.1,95c-6,30.5-4.6,65.5-1.8,97
		C326.7,364.4,336.9,404.7,348.7,442.7z"/>
	<path id="XMLID_5_" class="st30" d="M406.3,440.4c8.3,37.8,52.6,142.1,55.3,146.7c1.4,2.5,14.4,30.3,26.3,55.7
		c16.7-3.5,34.2-5.4,52.2-5.4c16.9,0,33.3,1.6,49,4.8c13-25.1,44.3-83.7,62.4-134.5c22.4-62.6,30.8-104.3,38.8-165.9
		c8-61.6-3-135.1-14.4-169.9s-30.8-60.6-51.7-78.5C603.2,75.4,551,70.8,551,70.8s-39.3-2.8-68.6,8.6s-49.2,30.8-64.9,61.1
		c-15.7,30.3-23.1,64.1-27.4,94.4c-4.2,30.3-3.2,65.1-1.2,96.4S398,402.6,406.3,440.4z"/>
	<path id="XMLID_6_" class="st31" d="M468.7,440.4c4.4,37.8,28.1,142.1,29.5,146.7c0.8,2.5,7.7,30.3,14,55.7
		c8.9-3.5,18.2-5.4,27.9-5.4c9,0,17.8,1.6,26.1,4.8c6.9-25.1,23.6-83.7,33.3-134.5c11.9-62.6,16.4-104.3,20.7-165.9
		c4.2-61.6-1.6-135.1-7.7-169.9c-6.1-34.8-16.4-60.6-27.6-78.5s-39-22.5-39-22.5s-21-2.8-36.6,8.6c-15.7,11.4-26.3,30.8-34.6,61.1
		c-8.4,30.3-12.3,64.1-14.6,94.4c-2.3,30.3-1.7,65.1-0.7,96.4S464.3,402.6,468.7,440.4z"/>
	<path id="XMLID_8_" class="st32" d="M514.8,440.4c1.6,37.8,10,142.1,10.5,146.7c0.3,2.5,2.7,30.3,5,55.7c3.2-3.5,6.5-5.4,9.9-5.4
		c3.2,0,6.3,1.6,9.3,4.8c2.5-25.1,8.4-83.7,11.8-134.5c4.2-62.6,5.8-104.3,7.3-165.9s-0.6-135.1-2.7-169.9s-5.8-60.6-9.8-78.5
		c-3.9-17.9-13.8-22.5-13.8-22.5s-7.4-2.8-13,8.6s-9.3,30.8-12.3,61.1s-4.4,64.1-5.2,94.4c-0.8,30.3-0.6,65.1-0.2,96.4
		C511.9,362.5,513.2,402.6,514.8,440.4z"/>
</g>
</svg>
