<?xml version="1.0" encoding="utf-8"?>
<!-- Generator: Adobe Illustrator 19.0.0, SVG Export Plug-In . SVG Version: 6.00 Build 0)  -->
<svg version="1.1" xmlns="http://www.w3.org/2000/svg" xmlns:xlink="http://www.w3.org/1999/xlink" x="0px" y="0px"
	 viewBox="0 0 1270 720" style="enable-background:new 0 0 1270 720;" xml:space="preserve">
<style type="text/css">
	.st0{fill:#FFFFFF;stroke:#000000;stroke-width:1.9135;stroke-miterlimit:10;}
	.st1{fill:#FFF200;stroke:#000000;stroke-width:3.0548;stroke-miterlimit:10;}
	.st2{fill:#FFFFFF;stroke:#000000;stroke-width:1.5274;stroke-miterlimit:10;}
	.st3{fill:none;stroke:#000000;stroke-width:1.5274;stroke-miterlimit:10;}
	.st4{stroke:#000000;stroke-width:1.5274;stroke-miterlimit:10;}
	.st5{fill:#BCBEC0;}
	.st6{fill:#ED1C24;stroke:#000000;stroke-width:2.3793;stroke-miterlimit:10;}
	.st7{fill:none;stroke:#000000;stroke-width:2.3793;stroke-miterlimit:10;}
</style>
<symbol  id="New_Symbol" viewBox="-46.9 -43.6 93.7 87.2">
	<path id="XMLID_20_" class="st0" d="M39.4,0c0-23.6-19.1-42.7-42.7-42.7S-45.9-23.6-45.9,0s19.1,42.7,42.7,42.7S39.4,23.6,39.4,0z"
		/>
	<polygon id="XMLID_11_" style="fill:none;" points="46.9,-30 -40.1,-30 -40.1,30 46.9,30 	"/>
	<text id="XMLID_8_" transform="matrix(1 0 0 -1 -40.1367 -21.1191)" style="font-family:'MyriadPro-Regular'; font-size:72px;">42</text>
</symbol>
<g id="Layer_1">
	<path id="XMLID_1_" class="st1" d="M698.9,307.2c0,0,131.4-7.1,296.8-4.1l24.9,17.3l179.7,18.3l4.1,12.2l35.6,14.8
		c0,0,7.6,11.2,0,15.5c-7.6,4.3-103.4,31.3-103.4,31.3l-89.1,4.1l-107.4,89.6l-101.3-9.7l28-86.6l-80.4-21.9l-26-17.3L660.7,349
		l-17.8,7.1l-39.2-6.1l11.7-13.2L599.6,323l5.1-99.3h42.8L698.9,307.2z"/>
	<polygon id="XMLID_3_" class="st1" points="687.3,288.4 697.1,278.4 738.1,281.2 722.4,306.1 698.9,307.2 	"/>
	<polygon id="XMLID_4_" class="st1" points="975.9,302.4 1020.4,265 1091.1,267.3 1075.6,326.1 1020.4,320.5 995.7,303.1 	"/>
</g>
<g id="Layer_2">
	<path id="XMLID_90_" class="st2" d="M907.7,302.4l-16.8,22.9c9.1,6.1,23.6,14,42.8,17.2c44.3,7.4,78.7-16.1,86.8-22.1
		c-8.2-5.8-16.5-11.5-24.7-17.3L907.7,302.4z"/>
	<path id="XMLID_89_" class="st3" d="M866.9,410.1l7.6-15.3c0,0,137-36.4,183,10.9l-9.9,10.9"/>
	<polyline id="XMLID_88_" class="st3" points="615.4,336.7 635.9,315.2 698.9,307.2 716.9,317.5 660.7,349 	"/>
	<path id="XMLID_87_" class="st4" d="M1204.5,351c0,0,3.1,17.9-3.4,43l36.2-11.5c0,0,11.7-2.1,2.8-16.8L1204.5,351z"/>
</g>
<g id="Layer_3">
	<path id="XMLID_9_" class="st5" d="M1205.9,349.9c-0.2-10,0.2-21.2,1.5-33.3c1.9-17.9,5.4-33.6,9.3-46.8c1.7,4.4,3.7,10.9,5,18.8
		c1,6.4,1.4,13.3,0.6,25.8c-0.6,10-2.1,23.6-5.5,40"/>
	<path id="XMLID_10_" class="st5" d="M1200.1,395.7c-1.5,7.8-2.7,16.6-3.2,26.3c-1.1,23.7,2.8,43.7,7.1,58.4
		c3.1-14.3,5.9-30.2,7.8-47.4c1.6-14.7,2.5-28.6,2.7-41.4"/>
</g>
<g id="Layer_4">
	
		<use xlink:href="#New_Symbol"  width="93.7" height="87.2" id="XMLID_84_" x="-46.9" y="-43.6" transform="matrix(0.5517 0 0 -0.5517 818.211 348.9645)" style="overflow:visible;"/>
	
		<use xlink:href="#New_Symbol"  width="93.7" height="87.2" id="XMLID_83_" x="-46.9" y="-43.6" transform="matrix(-0.2893 0.3036 0.7518 7.606995e-002 906.0908 474.5837)" style="overflow:visible;"/>
	
		<use xlink:href="#New_Symbol"  width="93.7" height="87.2" id="XMLID_82_" x="-46.9" y="-43.6" transform="matrix(-0.2575 0.2702 0.6691 6.770451e-002 1043.0496 285.244)" style="overflow:visible;"/>
	<g id="XMLID_31_">
		<g id="XMLID_15_">
			<path id="XMLID_65_" class="st6" d="M510.3,318c-161.6-41.7-320.8,53.7-482.4,12c6-36.5,12.1-73,18.1-109.4
				c147.7,44.7,298.4-35.1,446.1,9.6C498.2,259.5,504.3,288.7,510.3,318z"/>
			<g id="XMLID_46_">
				<path id="XMLID_62_" d="M144.7,286.7c-1.2,13.1-11.4,27.5-25.3,27.3c-14.1-0.2-20.4-14.9-18.8-27.6c1.7-13.4,11.1-26.5,25.3-26
					C138.8,260.8,145.8,274.8,144.7,286.7z M107.3,286.7c-1.1,8.9,2.4,21.6,13.1,21.8c10.8,0.1,16.8-11.8,17.7-21.4
					c0.9-8.8-2.6-20.9-13.1-21.3C114.2,265.4,108.5,277.3,107.3,286.7z"/>
				<path id="XMLID_59_" d="M158.5,261.8c3-0.6,6.9-1.2,11.8-1.5c6-0.3,10.3,0.9,12.9,3.3c2.4,2.2,3.8,5.7,3.5,10.2
					c-0.3,4.6-1.8,8.3-4.4,11.1c-3.5,3.9-9,6.3-15.1,6.8c-1.9,0.1-3.6,0.2-5-0.1c-0.7,8.2-1,12.3-1.6,20.4c-2.5,0.2-3.8,0.3-6.3,0.4
					C155.7,295.5,157.1,278.7,158.5,261.8z M162.6,286.2c1.3,0.3,3,0.3,5.1,0.2c7.5-0.5,12.3-4.8,12.8-11.7
					c0.5-6.7-3.8-9.5-10.5-9.1c-2.7,0.2-4.7,0.5-5.8,0.8C163.6,274.3,163.3,278.2,162.6,286.2z"/>
				<path id="XMLID_57_" d="M222.9,281.8c-7.5,1-11.2,1.5-18.7,2.4c-0.4,7.2-0.5,10.8-0.9,18c8.5-1.1,12.7-1.7,21.1-2.9
					c-0.1,2.1-0.1,3.2-0.2,5.3c-11,1.7-16.5,2.4-27.5,3.8c0.9-16.7,1.8-33.4,2.7-50.1c10.2-1,15.3-1.6,25.5-2.9
					c-0.1,2.1-0.1,3.2-0.2,5.3c-7.8,1-11.7,1.5-19.5,2.4c-0.3,6.3-0.5,9.5-0.8,15.8c7.5-0.9,11.2-1.4,18.6-2.4
					C223,278.6,223,279.7,222.9,281.8z"/>
				<path id="XMLID_55_" d="M236.2,302.8c0.4-16.3,0.8-32.7,1.2-49c2.7-0.4,4-0.5,6.6-0.9c5.8,9,8.8,13.5,14.9,22.3
					c3.5,5.1,6.3,9.7,8.6,14.3c0.1,0,0.1-0.1,0.1-0.1c-0.6-6.3-0.7-12.2-0.7-19.7c0-8.1,0-12.1,0-20.2c2.3-0.3,3.4-0.5,5.7-0.8
					c0,16,0.1,32,0.1,48c-2.6,0.4-3.8,0.6-6.4,1.1c-6.2-8.7-9.2-13.2-15.2-22.1c-3.3-4.9-6.4-10-8.6-15c-0.1,0-0.1,0.1-0.2,0.1
					c0.2,6.1,0.2,12,0.1,20.1c-0.2,8.4-0.3,12.5-0.4,20.9C239.8,302.2,238.6,302.4,236.2,302.8z"/>
				<path id="XMLID_52_" d="M305.6,244.8c3.7-1.1,8.1-2,12.9-2.6c8.7-1.1,15.1,0.3,19.4,3.6c4.4,3.3,7.3,8.4,7.7,15.8
					c0.5,7.5-1.6,13.9-5.9,18.7c-4.3,4.8-11.8,8.2-21.3,9.6c-4.5,0.7-8.3,1-11.5,1.2C306.5,275.6,306.1,260.2,305.6,244.8z
					 M313.1,285.4c1.6,0,3.9-0.2,6.4-0.6c12-1.8,20-10.1,19.6-22.4c-0.4-10.8-9.9-17.2-20.2-15.6c-3.1,0.5-5.5,1-7.1,1.5
					C312.3,260.8,312.7,273.1,313.1,285.4z"/>
				<path id="XMLID_49_" d="M364.9,269.4c-1.6,5.9-2.3,8.8-3.9,14.8c-2.6,0.3-3.9,0.4-6.5,0.7c4.4-15.6,8.7-31.2,12.8-46.9
					c2.9-0.2,4.4-0.2,7.3-0.4c6.8,14.8,13.7,29.6,20.8,44.3c-2.7,0.1-4.1,0.2-6.8,0.3c-2.7-5.6-4-8.3-6.6-13.9
					C375.2,268.6,371.8,268.8,364.9,269.4z M380.4,263.7c-2.4-5.1-3.6-7.6-5.9-12.7c-1.3-2.9-2.3-5.5-3.2-8.1c-0.1,0-0.1,0-0.1,0
					c-0.5,2.7-1,5.5-1.7,8.3c-1.4,5.4-2.1,8.1-3.6,13.5C371.7,264.2,374.6,264,380.4,263.7z"/>
				<path id="XMLID_47_" d="M411.6,281.5c-0.9-7.5-1.4-11.3-2.3-18.8c-6.1-8.5-12.1-17.1-18-25.7c2.8,0,4.2,0,6.9,0
					c3.2,4.9,4.8,7.4,8.1,12.3c2.2,3.4,4,6.1,5.9,9.2c0.1,0,0.1,0,0.1,0c1-2.9,2.3-5.7,3.7-9c2.1-4.8,3.2-7.1,5.2-11.8
					c2.8,0.2,4.2,0.3,6.9,0.5c-4.9,9.6-7.4,14.5-12.6,24.5c0.9,7.5,1.4,11.3,2.4,18.8C415.4,281.5,414.1,281.5,411.6,281.5z"/>
			</g>
		</g>
	</g>
	<line id="XMLID_29_" class="st7" x1="492.3" y1="230.5" x2="604.1" y2="235.2"/>
	<line id="XMLID_28_" class="st7" x1="509.8" y1="314.1" x2="600.7" y2="301.1"/>
</g>
</svg>
