<?xml version="1.0" encoding="utf-8"?>
<!-- Generator: Adobe Illustrator 19.0.0, SVG Export Plug-In . SVG Version: 6.00 Build 0)  -->
<svg version="1.1" xmlns="http://www.w3.org/2000/svg" xmlns:xlink="http://www.w3.org/1999/xlink" x="0px" y="0px"
	 viewBox="0 0 260 260" style="enable-background:new 0 0 260 260;" xml:space="preserve">
<style type="text/css">
	.st0{fill:#505150;stroke:#000000;stroke-width:0.9798;stroke-miterlimit:10;}
	.st1{fill:#ED1F24;stroke:#000000;stroke-width:0.9798;stroke-miterlimit:10;}
	.st2{fill:#505150;stroke:#000000;stroke-miterlimit:10;}
</style>
<g id="Layer_2">
	<rect id="XMLID_3_" x="122.5" y="10" class="st0" width="15" height="240"/>
	
		<rect id="XMLID_1_" x="122.5" y="10" transform="matrix(-0.5 -0.866 0.866 -0.5 82.4167 307.5833)" class="st0" width="15" height="240"/>
	
		<rect id="XMLID_2_" x="122.5" y="10" transform="matrix(-0.5 0.866 -0.866 -0.5 307.5833 82.4167)" class="st0" width="15" height="240"/>
	<circle id="XMLID_4_" class="st1" cx="130" cy="130" r="15"/>
</g>
<g id="Layer_1">
	<path id="XMLID_7_" class="st2" d="M130,5C61,5,5,61,5,130s56,125,125,125s125-56,125-125S199,5,130,5z M130,245
		c-63.5,0-115-51.5-115-115S66.5,15,130,15s115,51.5,115,115S193.5,245,130,245z"/>
</g>
</svg>
