<?xml version="1.0" encoding="utf-8"?>
<!-- Generator: Adobe Illustrator 19.0.0, SVG Export Plug-In . SVG Version: 6.00 Build 0)  -->
<svg version="1.1" xmlns="http://www.w3.org/2000/svg" xmlns:xlink="http://www.w3.org/1999/xlink" x="0px" y="0px"
	 viewBox="0 0 260 260" style="enable-background:new 0 0 260 260;" xml:space="preserve">
<style type="text/css">
	.st0{fill:#505150;stroke:#000000;stroke-miterlimit:10;}
	.st1{fill:#6D6E71;stroke:#000000;stroke-miterlimit:10;}
	.st2{fill:#FBB040;stroke:#000000;stroke-width:1.1115;stroke-miterlimit:10;}
</style>
<g id="Layer_1">
	<path id="XMLID_5_" class="st0" d="M130,5C61,5,5,61,5,130s56,125,125,125s125-56,125-125S199,5,130,5z M130,245
		c-63.5,0-115-51.5-115-115S66.5,15,130,15s115,51.5,115,115S193.5,245,130,245z"/>
</g>
<g id="Layer_2">
	<g id="XMLID_1_">
		<path id="XMLID_3_" class="st1" d="M222,199c-17.7-15.3-33.8-25.7-45.9-32.5c-22.7-12.9-29.3-12.4-52.2-26.1
			c-21.4-12.8-23.6-18-44.6-31.4c-12.6-8.1-30.5-18.1-53.7-27c0.9-3,2.4-7,4.9-11.2c2.4-4,5-7,7.2-9.2C56.7,77.9,73.9,88.8,86.9,96
			c21.8,12,27.5,11.2,49.1,23.9c22.9,13.5,25.1,20.3,47.6,33.6c20.5,12.1,38.5,20,50.8,24.9c-0.5,2.6-1.5,6.1-3.6,10
			C228,193.5,224.4,197,222,199z"/>
		<path id="XMLID_2_" d="M224.8,196.3c-19.4-16.6-35.7-26.2-47.4-32.1c-1.3-0.6-21.1-10.7-37.2-19.2c-4.1-2.2-8.7-4.7-14.3-8.1
			c-5.4-3.2-9.7-5.9-13.3-8.4c-11.7-7.8-17.6-11.7-32-21.9c-10.5-7.5-27.1-17.6-53.6-28.4c0.7-2.1,1.7-4.8,3.5-7.7
			c1.7-2.8,3.5-5,5.1-6.6c21.8,18.5,38.6,28.3,50.2,33.9c4.2,2,16.9,8.3,34.6,17.5c3.9,2,8.3,4.4,13.7,7.7
			c22.7,13.4,35.9,23.9,48.4,32.3c11,7.5,27.7,17.3,50.9,26c-0.5,2-1.4,4.5-2.8,7.2C228.7,192.1,226.5,194.6,224.8,196.3z"/>
	</g>
	<g id="XMLID_8_">
		<path id="XMLID_10_" class="st1" d="M143.8,15.9c-4.4,23-5.3,42.1-5.2,56c0.2,26.1,3.9,31.6,3.5,58.3c-0.4,25-3.8,29.4-4.9,54.3
			c-0.7,15-0.4,35.4,3.5,60.1c-3.1,0.7-7.2,1.4-12.2,1.3c-4.7-0.1-8.6-0.9-11.5-1.7c4.8-24.6,5.6-45,5.3-59.9
			c-0.5-24.9-4-29.4-3.8-54.5c0.2-26.5,5-31.9,5.3-58c0.3-23.8-1.9-43.4-3.8-56.4c2.5-0.8,6.1-1.7,10.4-1.9
			C136.1,13.5,140.9,14.8,143.8,15.9z"/>
		<path id="XMLID_9_" d="M140.1,14.8c-4.7,25-4.9,44-4.1,57.1c0.1,1.4,1.3,23.6,2,41.8c0.2,4.6,0.2,9.9,0.1,16.5
			c-0.1,6.3-0.3,11.3-0.6,15.7c-0.9,14-1.3,21.1-3,38.6c-1.2,12.8-1.6,32.3,2.2,60.6c-2.2,0.5-5,0.9-8.4,0.8
			c-3.3-0.1-6.1-0.6-8.2-1.1c5.1-28.1,5.2-47.6,4.3-60.4c-0.3-4.6-1.2-18.8-2.1-38.7c-0.2-4.4-0.3-9.4-0.2-15.7
			c0.3-26.3,2.7-43.1,3.8-58.1c1-13.3,1.1-32.6-3-57.1c2-0.6,4.6-1.1,7.7-1.2C134.5,13.5,137.8,14.1,140.1,14.8z"/>
	</g>
	<g id="XMLID_12_">
		<path id="XMLID_14_" class="st1" d="M24.4,175.5c22.1-7.7,39.2-16.5,51.1-23.5c22.5-13.2,25.4-19.2,48.8-32.2
			c21.8-12.1,27.4-11.4,49.5-22.9c13.3-6.9,30.9-17.3,50.3-33c2.2,2.3,4.9,5.6,7.3,9.9c2.3,4.1,3.6,7.9,4.3,10.8
			c-23.7,8.1-41.8,17.6-54.5,25.3c-21.3,12.9-23.5,18.2-45.3,30.5c-23.1,13.1-30.1,11.6-52.9,24.5c-20.8,11.7-36.6,23.4-46.9,31.5
			c-2-1.8-4.5-4.4-6.8-8.1C26.1,183.3,24.9,178.5,24.4,175.5z"/>
		<path id="XMLID_13_" d="M25.3,179.2c24-8.5,40.6-17.8,51.5-25c1.2-0.8,19.8-12.9,35.2-22.6c3.9-2.5,8.5-5.2,14.2-8.4
			c5.5-3.1,10-5.4,13.9-7.3c12.6-6.2,18.9-9.4,34.9-16.8c11.7-5.4,28.8-14.7,51.4-32.2c1.5,1.6,3.3,3.9,4.9,6.8
			c1.6,2.9,2.6,5.6,3.1,7.7c-26.9,9.7-43.8,19.3-54.4,26.5c-3.8,2.6-15.6,10.5-32.5,21.2c-3.7,2.4-8,4.9-13.5,8.1
			c-23,12.9-38.7,19.2-52.2,25.7c-12,5.8-28.8,15.3-47.9,31.1c-1.5-1.4-3.2-3.4-4.9-6.1C27,184.7,25.9,181.5,25.3,179.2z"/>
	</g>
	<polygon id="XMLID_4_" class="st2" points="122.8,147.3 112.6,137.2 112.6,122.8 122.8,112.7 137.1,112.7 147.3,122.8 147.3,137.2 
		137.1,147.3 	"/>
</g>
</svg>
