<?xml version="1.0" encoding="UTF-8" standalone="no"?>
<svg version="1.1" xmlns="http://www.w3.org/2000/svg" xmlns:xlink="http://www.w3.org/1999/xlink" width="793.263" height="1122.69">
	<defs>
		<clipPath id="clip_dp_001" clipPathUnits="userSpaceOnUse" clip-rule="nonzero">
			<path d="M 0,0 L 793.7,0 L 793.7,1122.52 L 0,1122.52 Z " clip-rule="nonzero"/>
		</clipPath>
	</defs>
	<g id="dp_dp001" clip-path="url(#clip_dp_001)">
		<g id="clip">
			<path id="dp_path002" fill="none" fill-rule="evenodd" stroke="#c9c9c9" stroke-width="1.33333" d="M 362.273,367.641 L 288.867,367.641 L 288.867,718.273 L 362.273,718.273 L 362.273,367.641M 343.921,367.641 L 343.921,718.273M 325.569,367.641 L 325.569,718.273M 307.217,367.641 L 307.217,718.273M 362.273,389.556 L 288.867,389.556M 362.273,411.471 L 288.867,411.471M 362.273,433.385 L 288.867,433.385M 362.273,455.299 L 288.867,455.299M 362.273,477.213 L 288.867,477.213M 362.273,499.128 L 288.867,499.128M 362.273,521.043 L 288.867,521.043M 362.273,542.957 L 288.867,542.957M 362.273,564.872 L 288.867,564.872M 362.273,586.787 L 288.867,586.787M 362.273,608.701 L 288.867,608.701M 362.273,630.616 L 288.867,630.616M 362.273,652.529 L 288.867,652.529M 362.273,674.444 L 288.867,674.444M 362.273,696.359 L 288.867,696.359"/>
			<path id="dp_path003" fill="none" fill-rule="evenodd" stroke="#c9c9c9" stroke-width="1.33333" d="M 342.079,388.149 L 359.989,410.807"/>
			<path id="dp_path004" fill="none" fill-rule="evenodd" stroke="#c9c9c9" stroke-width="1.33333" d="M 341.952,389.461 L 324.372,410.807"/>
			<path id="dp_path005" fill="none" fill-rule="evenodd" stroke="#c9c9c9" stroke-width="1.33333" d="M 323.904,410.484 L 304.689,388.603"/>
			<path id="dp_path006" fill="none" fill-rule="evenodd" stroke="#c9c9c9" stroke-width="1.33333" d="M 306.096,389.247 L 287.819,410.484"/>
			<path id="dp_path007" fill="none" fill-rule="evenodd" stroke="#c9c9c9" stroke-width="1.33333" d="M 342.079,412.416 L 359.989,389.759"/>
			<path id="dp_path008" fill="none" fill-rule="evenodd" stroke="#c9c9c9" stroke-width="1.33333" d="M 341.952,411.103 L 324.372,389.759"/>
			<path id="dp_path009" fill="none" fill-rule="evenodd" stroke="#c9c9c9" stroke-width="1.33333" d="M 323.904,390.08 L 304.689,411.961"/>
			<path id="dp_path010" fill="none" fill-rule="evenodd" stroke="#c9c9c9" stroke-width="1.33333" d="M 306.096,411.319 L 287.819,390.08"/>
			<path id="dp_path011" fill="none" fill-rule="evenodd" stroke="#c9c9c9" stroke-width="1.33333" d="M 343.251,409.709 L 361.161,432.365"/>
			<path id="dp_path012" fill="none" fill-rule="evenodd" stroke="#c9c9c9" stroke-width="1.33333" d="M 343.123,411.021 L 325.544,432.365"/>
			<path id="dp_path013" fill="none" fill-rule="evenodd" stroke="#c9c9c9" stroke-width="1.33333" d="M 325.076,432.044 L 305.861,410.163"/>
			<path id="dp_path014" fill="none" fill-rule="evenodd" stroke="#c9c9c9" stroke-width="1.33333" d="M 307.267,410.807 L 288.989,432.044"/>
			<path id="dp_path015" fill="none" fill-rule="evenodd" stroke="#c9c9c9" stroke-width="1.33333" d="M 343.251,433.976 L 361.161,411.319"/>
			<path id="dp_path016" fill="none" fill-rule="evenodd" stroke="#c9c9c9" stroke-width="1.33333" d="M 343.123,432.663 L 325.544,411.319"/>
			<path id="dp_path017" fill="none" fill-rule="evenodd" stroke="#c9c9c9" stroke-width="1.33333" d="M 325.076,411.64 L 305.861,433.521"/>
			<path id="dp_path018" fill="none" fill-rule="evenodd" stroke="#c9c9c9" stroke-width="1.33333" d="M 307.267,432.879 L 288.989,411.64"/>
			<path id="dp_path019" fill="none" fill-rule="evenodd" stroke="#c9c9c9" stroke-width="1.33333" d="M 343.251,431.912 L 361.161,454.569"/>
			<path id="dp_path020" fill="none" fill-rule="evenodd" stroke="#c9c9c9" stroke-width="1.33333" d="M 343.123,433.225 L 325.544,454.569"/>
			<path id="dp_path021" fill="none" fill-rule="evenodd" stroke="#c9c9c9" stroke-width="1.33333" d="M 325.076,454.248 L 305.861,432.365"/>
			<path id="dp_path022" fill="none" fill-rule="evenodd" stroke="#c9c9c9" stroke-width="1.33333" d="M 307.267,433.009 L 288.989,454.248"/>
			<path id="dp_path023" fill="none" fill-rule="evenodd" stroke="#c9c9c9" stroke-width="1.33333" d="M 343.251,456.179 L 361.161,433.521"/>
			<path id="dp_path024" fill="none" fill-rule="evenodd" stroke="#c9c9c9" stroke-width="1.33333" d="M 343.123,454.867 L 325.544,433.521"/>
			<path id="dp_path025" fill="none" fill-rule="evenodd" stroke="#c9c9c9" stroke-width="1.33333" d="M 325.076,433.844 L 305.861,455.725"/>
			<path id="dp_path026" fill="none" fill-rule="evenodd" stroke="#c9c9c9" stroke-width="1.33333" d="M 307.267,455.081 L 288.989,433.844"/>
			<path id="dp_path027" fill="none" fill-rule="evenodd" stroke="#c9c9c9" stroke-width="1.33333" d="M 343.251,452.828 L 361.161,475.485"/>
			<path id="dp_path028" fill="none" fill-rule="evenodd" stroke="#c9c9c9" stroke-width="1.33333" d="M 343.123,454.141 L 325.544,475.485"/>
			<path id="dp_path029" fill="none" fill-rule="evenodd" stroke="#c9c9c9" stroke-width="1.33333" d="M 325.076,475.164 L 305.861,453.283"/>
			<path id="dp_path030" fill="none" fill-rule="evenodd" stroke="#c9c9c9" stroke-width="1.33333" d="M 307.267,453.925 L 288.989,475.164"/>
			<path id="dp_path031" fill="none" fill-rule="evenodd" stroke="#c9c9c9" stroke-width="1.33333" d="M 343.251,477.095 L 361.161,454.439"/>
			<path id="dp_path032" fill="none" fill-rule="evenodd" stroke="#c9c9c9" stroke-width="1.33333" d="M 343.123,475.783 L 325.544,454.439"/>
			<path id="dp_path033" fill="none" fill-rule="evenodd" stroke="#c9c9c9" stroke-width="1.33333" d="M 325.076,454.76 L 305.861,476.641"/>
			<path id="dp_path034" fill="none" fill-rule="evenodd" stroke="#c9c9c9" stroke-width="1.33333" d="M 307.267,475.999 L 288.989,454.76"/>
			<path id="dp_path035" fill="none" fill-rule="evenodd" stroke="#c9c9c9" stroke-width="1.33333" d="M 343.251,474.388 L 361.161,497.045"/>
			<path id="dp_path036" fill="none" fill-rule="evenodd" stroke="#c9c9c9" stroke-width="1.33333" d="M 343.123,475.701 L 325.544,497.045"/>
			<path id="dp_path037" fill="none" fill-rule="evenodd" stroke="#c9c9c9" stroke-width="1.33333" d="M 325.076,496.724 L 305.861,474.843"/>
			<path id="dp_path038" fill="none" fill-rule="evenodd" stroke="#c9c9c9" stroke-width="1.33333" d="M 307.267,475.485 L 288.989,496.724"/>
			<path id="dp_path039" fill="none" fill-rule="evenodd" stroke="#c9c9c9" stroke-width="1.33333" d="M 343.251,498.655 L 361.161,475.999"/>
			<path id="dp_path040" fill="none" fill-rule="evenodd" stroke="#c9c9c9" stroke-width="1.33333" d="M 343.123,497.343 L 325.544,475.999"/>
			<path id="dp_path041" fill="none" fill-rule="evenodd" stroke="#c9c9c9" stroke-width="1.33333" d="M 325.076,476.32 L 305.861,498.201"/>
			<path id="dp_path042" fill="none" fill-rule="evenodd" stroke="#c9c9c9" stroke-width="1.33333" d="M 307.267,497.557 L 288.989,476.32"/>
			<path id="dp_path043" fill="none" fill-rule="evenodd" stroke="#c9c9c9" stroke-width="1.33333" d="M 343.251,497.236 L 361.161,519.893"/>
			<path id="dp_path044" fill="none" fill-rule="evenodd" stroke="#c9c9c9" stroke-width="1.33333" d="M 343.123,498.548 L 325.544,519.893"/>
			<path id="dp_path045" fill="none" fill-rule="evenodd" stroke="#c9c9c9" stroke-width="1.33333" d="M 325.076,519.571 L 305.861,497.689"/>
			<path id="dp_path046" fill="none" fill-rule="evenodd" stroke="#c9c9c9" stroke-width="1.33333" d="M 307.267,498.333 L 288.989,519.571"/>
			<path id="dp_path047" fill="none" fill-rule="evenodd" stroke="#c9c9c9" stroke-width="1.33333" d="M 343.251,521.503 L 361.161,498.845"/>
			<path id="dp_path048" fill="none" fill-rule="evenodd" stroke="#c9c9c9" stroke-width="1.33333" d="M 343.123,520.189 L 325.544,498.845"/>
			<path id="dp_path049" fill="none" fill-rule="evenodd" stroke="#c9c9c9" stroke-width="1.33333" d="M 325.076,499.167 L 305.861,521.048"/>
			<path id="dp_path050" fill="none" fill-rule="evenodd" stroke="#c9c9c9" stroke-width="1.33333" d="M 307.267,520.405 L 288.989,499.167"/>
			<path id="dp_path051" fill="none" fill-rule="evenodd" stroke="#c9c9c9" stroke-width="1.33333" d="M 343.251,518.152 L 361.161,540.809"/>
			<path id="dp_path052" fill="none" fill-rule="evenodd" stroke="#c9c9c9" stroke-width="1.33333" d="M 343.123,519.465 L 325.544,540.809"/>
			<path id="dp_path053" fill="none" fill-rule="evenodd" stroke="#c9c9c9" stroke-width="1.33333" d="M 325.076,540.487 L 305.861,518.605"/>
			<path id="dp_path054" fill="none" fill-rule="evenodd" stroke="#c9c9c9" stroke-width="1.33333" d="M 307.267,519.249 L 288.989,540.487"/>
			<path id="dp_path055" fill="none" fill-rule="evenodd" stroke="#c9c9c9" stroke-width="1.33333" d="M 343.251,542.419 L 361.161,519.761"/>
			<path id="dp_path056" fill="none" fill-rule="evenodd" stroke="#c9c9c9" stroke-width="1.33333" d="M 343.123,541.105 L 325.544,519.761"/>
			<path id="dp_path057" fill="none" fill-rule="evenodd" stroke="#c9c9c9" stroke-width="1.33333" d="M 325.076,520.083 L 305.861,541.965"/>
			<path id="dp_path058" fill="none" fill-rule="evenodd" stroke="#c9c9c9" stroke-width="1.33333" d="M 307.267,541.321 L 288.989,520.083"/>
			<path id="dp_path059" fill="none" fill-rule="evenodd" stroke="#c9c9c9" stroke-width="1.33333" d="M 343.251,539.712 L 361.161,562.369"/>
			<path id="dp_path060" fill="none" fill-rule="evenodd" stroke="#c9c9c9" stroke-width="1.33333" d="M 343.123,541.024 L 325.544,562.369"/>
			<path id="dp_path061" fill="none" fill-rule="evenodd" stroke="#c9c9c9" stroke-width="1.33333" d="M 325.076,562.047 L 305.861,540.165"/>
			<path id="dp_path062" fill="none" fill-rule="evenodd" stroke="#c9c9c9" stroke-width="1.33333" d="M 307.267,540.809 L 288.989,562.047"/>
			<path id="dp_path063" fill="none" fill-rule="evenodd" stroke="#c9c9c9" stroke-width="1.33333" d="M 343.251,563.979 L 361.161,541.321"/>
			<path id="dp_path064" fill="none" fill-rule="evenodd" stroke="#c9c9c9" stroke-width="1.33333" d="M 343.123,562.665 L 325.544,541.321"/>
			<path id="dp_path065" fill="none" fill-rule="evenodd" stroke="#c9c9c9" stroke-width="1.33333" d="M 325.076,541.643 L 305.861,563.525"/>
			<path id="dp_path066" fill="none" fill-rule="evenodd" stroke="#c9c9c9" stroke-width="1.33333" d="M 307.267,562.881 L 288.989,541.643"/>
			<path id="dp_path067" fill="none" fill-rule="evenodd" stroke="#c9c9c9" stroke-width="1.33333" d="M 343.251,563.203 L 361.161,585.86"/>
			<path id="dp_path068" fill="none" fill-rule="evenodd" stroke="#c9c9c9" stroke-width="1.33333" d="M 343.123,564.515 L 325.544,585.86"/>
			<path id="dp_path069" fill="none" fill-rule="evenodd" stroke="#c9c9c9" stroke-width="1.33333" d="M 325.076,585.537 L 305.861,563.656"/>
			<path id="dp_path070" fill="none" fill-rule="evenodd" stroke="#c9c9c9" stroke-width="1.33333" d="M 307.267,564.3 L 288.989,585.537"/>
			<path id="dp_path071" fill="none" fill-rule="evenodd" stroke="#c9c9c9" stroke-width="1.33333" d="M 343.251,587.469 L 361.161,564.812"/>
			<path id="dp_path072" fill="none" fill-rule="evenodd" stroke="#c9c9c9" stroke-width="1.33333" d="M 343.123,586.156 L 325.544,564.812"/>
			<path id="dp_path073" fill="none" fill-rule="evenodd" stroke="#c9c9c9" stroke-width="1.33333" d="M 325.076,565.133 L 305.861,587.016"/>
			<path id="dp_path074" fill="none" fill-rule="evenodd" stroke="#c9c9c9" stroke-width="1.33333" d="M 307.267,586.372 L 288.989,565.133"/>
			<path id="dp_path075" fill="none" fill-rule="evenodd" stroke="#c9c9c9" stroke-width="1.33333" d="M 343.251,584.119 L 361.161,606.776"/>
			<path id="dp_path076" fill="none" fill-rule="evenodd" stroke="#c9c9c9" stroke-width="1.33333" d="M 343.123,585.432 L 325.544,606.776"/>
			<path id="dp_path077" fill="none" fill-rule="evenodd" stroke="#c9c9c9" stroke-width="1.33333" d="M 325.076,606.455 L 305.861,584.572"/>
			<path id="dp_path078" fill="none" fill-rule="evenodd" stroke="#c9c9c9" stroke-width="1.33333" d="M 307.267,585.216 L 288.989,606.455"/>
			<path id="dp_path079" fill="none" fill-rule="evenodd" stroke="#c9c9c9" stroke-width="1.33333" d="M 343.251,608.385 L 361.161,585.728"/>
			<path id="dp_path080" fill="none" fill-rule="evenodd" stroke="#c9c9c9" stroke-width="1.33333" d="M 343.123,607.072 L 325.544,585.728"/>
			<path id="dp_path081" fill="none" fill-rule="evenodd" stroke="#c9c9c9" stroke-width="1.33333" d="M 325.076,586.051 L 305.861,607.932"/>
			<path id="dp_path082" fill="none" fill-rule="evenodd" stroke="#c9c9c9" stroke-width="1.33333" d="M 307.267,607.288 L 288.989,586.051"/>
			<path id="dp_path083" fill="none" fill-rule="evenodd" stroke="#c9c9c9" stroke-width="1.33333" d="M 343.251,605.679 L 361.161,628.336"/>
			<path id="dp_path084" fill="none" fill-rule="evenodd" stroke="#c9c9c9" stroke-width="1.33333" d="M 343.123,606.992 L 325.544,628.336"/>
			<path id="dp_path085" fill="none" fill-rule="evenodd" stroke="#c9c9c9" stroke-width="1.33333" d="M 325.076,628.015 L 305.861,606.132"/>
			<path id="dp_path086" fill="none" fill-rule="evenodd" stroke="#c9c9c9" stroke-width="1.33333" d="M 307.267,606.776 L 288.989,628.015"/>
			<path id="dp_path087" fill="none" fill-rule="evenodd" stroke="#c9c9c9" stroke-width="1.33333" d="M 343.251,629.945 L 361.161,607.288"/>
			<path id="dp_path088" fill="none" fill-rule="evenodd" stroke="#c9c9c9" stroke-width="1.33333" d="M 343.123,628.632 L 325.544,607.288"/>
			<path id="dp_path089" fill="none" fill-rule="evenodd" stroke="#c9c9c9" stroke-width="1.33333" d="M 325.076,607.609 L 305.861,629.492"/>
			<path id="dp_path090" fill="none" fill-rule="evenodd" stroke="#c9c9c9" stroke-width="1.33333" d="M 307.267,628.848 L 288.989,607.609"/>
			<path id="dp_path091" fill="none" fill-rule="evenodd" stroke="#c9c9c9" stroke-width="1.33333" d="M 343.251,629.169 L 361.161,651.827"/>
			<path id="dp_path092" fill="none" fill-rule="evenodd" stroke="#c9c9c9" stroke-width="1.33333" d="M 343.123,630.483 L 325.544,651.827"/>
			<path id="dp_path093" fill="none" fill-rule="evenodd" stroke="#c9c9c9" stroke-width="1.33333" d="M 325.076,651.505 L 305.861,629.623"/>
			<path id="dp_path094" fill="none" fill-rule="evenodd" stroke="#c9c9c9" stroke-width="1.33333" d="M 307.267,630.267 L 288.989,651.505"/>
			<path id="dp_path095" fill="none" fill-rule="evenodd" stroke="#c9c9c9" stroke-width="1.33333" d="M 343.251,653.436 L 361.161,630.779"/>
			<path id="dp_path096" fill="none" fill-rule="evenodd" stroke="#c9c9c9" stroke-width="1.33333" d="M 343.123,652.123 L 325.544,630.779"/>
			<path id="dp_path097" fill="none" fill-rule="evenodd" stroke="#c9c9c9" stroke-width="1.33333" d="M 325.076,631.1 L 305.861,652.983"/>
			<path id="dp_path098" fill="none" fill-rule="evenodd" stroke="#c9c9c9" stroke-width="1.33333" d="M 307.267,652.339 L 288.989,631.1"/>
			<path id="dp_path099" fill="none" fill-rule="evenodd" stroke="#c9c9c9" stroke-width="1.33333" d="M 343.251,650.085 L 361.161,672.743"/>
			<path id="dp_path100" fill="none" fill-rule="evenodd" stroke="#c9c9c9" stroke-width="1.33333" d="M 343.123,651.399 L 325.544,672.743"/>
			<path id="dp_path101" fill="none" fill-rule="evenodd" stroke="#c9c9c9" stroke-width="1.33333" d="M 325.076,672.421 L 305.861,650.539"/>
			<path id="dp_path102" fill="none" fill-rule="evenodd" stroke="#c9c9c9" stroke-width="1.33333" d="M 307.267,651.183 L 288.989,672.421"/>
			<path id="dp_path103" fill="none" fill-rule="evenodd" stroke="#c9c9c9" stroke-width="1.33333" d="M 343.251,674.352 L 361.161,651.695"/>
			<path id="dp_path104" fill="none" fill-rule="evenodd" stroke="#c9c9c9" stroke-width="1.33333" d="M 343.123,673.04 L 325.544,651.695"/>
			<path id="dp_path105" fill="none" fill-rule="evenodd" stroke="#c9c9c9" stroke-width="1.33333" d="M 325.076,652.017 L 305.861,673.899"/>
			<path id="dp_path106" fill="none" fill-rule="evenodd" stroke="#c9c9c9" stroke-width="1.33333" d="M 307.267,673.255 L 288.989,652.017"/>
			<path id="dp_path107" fill="none" fill-rule="evenodd" stroke="#c9c9c9" stroke-width="1.33333" d="M 343.251,671.645 L 361.161,694.303"/>
			<path id="dp_path108" fill="none" fill-rule="evenodd" stroke="#c9c9c9" stroke-width="1.33333" d="M 343.123,672.959 L 325.544,694.303"/>
			<path id="dp_path109" fill="none" fill-rule="evenodd" stroke="#c9c9c9" stroke-width="1.33333" d="M 325.076,693.981 L 305.861,672.099"/>
			<path id="dp_path110" fill="none" fill-rule="evenodd" stroke="#c9c9c9" stroke-width="1.33333" d="M 307.267,672.743 L 288.989,693.981"/>
			<path id="dp_path111" fill="none" fill-rule="evenodd" stroke="#c9c9c9" stroke-width="1.33333" d="M 343.251,695.912 L 361.161,673.255"/>
			<path id="dp_path112" fill="none" fill-rule="evenodd" stroke="#c9c9c9" stroke-width="1.33333" d="M 343.123,694.6 L 325.544,673.255"/>
			<path id="dp_path113" fill="none" fill-rule="evenodd" stroke="#c9c9c9" stroke-width="1.33333" d="M 325.076,673.577 L 305.861,695.459"/>
			<path id="dp_path114" fill="none" fill-rule="evenodd" stroke="#c9c9c9" stroke-width="1.33333" d="M 307.267,694.815 L 288.989,673.577"/>
			<path id="dp_path115" fill="none" fill-rule="evenodd" stroke="#c9c9c9" stroke-width="1.33333" d="M 343.251,694.492 L 361.161,717.149"/>
			<path id="dp_path116" fill="none" fill-rule="evenodd" stroke="#c9c9c9" stroke-width="1.33333" d="M 343.123,695.805 L 325.544,717.149"/>
			<path id="dp_path117" fill="none" fill-rule="evenodd" stroke="#c9c9c9" stroke-width="1.33333" d="M 325.076,716.828 L 305.861,694.947"/>
			<path id="dp_path118" fill="none" fill-rule="evenodd" stroke="#c9c9c9" stroke-width="1.33333" d="M 307.267,695.589 L 288.989,716.828"/>
			<path id="dp_path119" fill="none" fill-rule="evenodd" stroke="#c9c9c9" stroke-width="1.33333" d="M 343.251,718.76 L 361.161,696.103"/>
			<path id="dp_path120" fill="none" fill-rule="evenodd" stroke="#c9c9c9" stroke-width="1.33333" d="M 343.123,717.447 L 325.544,696.103"/>
			<path id="dp_path121" fill="none" fill-rule="evenodd" stroke="#c9c9c9" stroke-width="1.33333" d="M 325.076,696.424 L 305.861,718.305"/>
			<path id="dp_path122" fill="none" fill-rule="evenodd" stroke="#c9c9c9" stroke-width="1.33333" d="M 307.267,717.663 L 288.989,696.424"/>
			<path id="dp_path123" fill="none" fill-rule="evenodd" stroke="#c9c9c9" stroke-width="10" d="M 368.425,433.492 L 281.725,433.492"/>
			<path id="dp_path124" fill="none" fill-rule="evenodd" stroke="#c9c9c9" stroke-width="10" d="M 368.425,476.129 L 281.725,476.129"/>
			<path id="dp_path125" fill="none" fill-rule="evenodd" stroke="#c9c9c9" stroke-width="10" d="M 368.425,520.376 L 281.725,520.376"/>
			<path id="dp_path126" fill="none" fill-rule="evenodd" stroke="#c9c9c9" stroke-width="10" d="M 368.425,563.012 L 281.725,563.012"/>
			<path id="dp_path127" fill="none" fill-rule="evenodd" stroke="#c9c9c9" stroke-width="10" d="M 368.425,608.063 L 281.725,608.063"/>
			<path id="dp_path128" fill="none" fill-rule="evenodd" stroke="#c9c9c9" stroke-width="10" d="M 368.425,652.309 L 281.725,652.309"/>
			<path id="dp_path129" fill="none" fill-rule="evenodd" stroke="#c9c9c9" stroke-width="10" d="M 368.425,694.141 L 281.725,694.141"/>
			<path id="dp_path130" fill="none" fill-rule="evenodd" stroke="#c9c9c9" stroke-width="1.33333" d="M 343.251,366.428 L 361.161,389.085"/>
			<path id="dp_path131" fill="none" fill-rule="evenodd" stroke="#c9c9c9" stroke-width="1.33333" d="M 343.123,367.741 L 325.544,389.085"/>
			<path id="dp_path132" fill="none" fill-rule="evenodd" stroke="#c9c9c9" stroke-width="1.33333" d="M 325.076,388.764 L 305.861,366.881"/>
			<path id="dp_path133" fill="none" fill-rule="evenodd" stroke="#c9c9c9" stroke-width="1.33333" d="M 307.267,367.525 L 288.989,388.764"/>
			<path id="dp_path134" fill="none" fill-rule="evenodd" stroke="#c9c9c9" stroke-width="1.33333" d="M 343.251,390.695 L 361.161,368.037"/>
			<path id="dp_path135" fill="none" fill-rule="evenodd" stroke="#c9c9c9" stroke-width="1.33333" d="M 343.123,389.381 L 325.544,368.037"/>
			<path id="dp_path136" fill="none" fill-rule="evenodd" stroke="#c9c9c9" stroke-width="1.33333" d="M 325.076,368.36 L 305.861,390.241"/>
			<path id="dp_path137" fill="none" fill-rule="evenodd" stroke="#c9c9c9" stroke-width="1.33333" d="M 307.267,389.597 L 288.989,368.36"/>
			<path id="dp_path138" fill="none" fill-rule="evenodd" stroke="#c9c9c9" stroke-width="4.66667" d="M 292.252,718.115 L 363.765,691.085"/>
			<path id="dp_path139" fill="none" fill-rule="evenodd" stroke="#c9c9c9" stroke-width="4.66667" d="M 362.509,694.947 L 289.743,651.505"/>
			<path id="dp_path140" fill="none" fill-rule="evenodd" stroke="#c9c9c9" stroke-width="4.66667" d="M 362.509,607.097 L 289.743,563.656"/>
			<path id="dp_path141" fill="none" fill-rule="evenodd" stroke="#c9c9c9" stroke-width="4.66667" d="M 366.273,522.145 L 293.507,478.704"/>
			<path id="dp_path142" fill="none" fill-rule="evenodd" stroke="#c9c9c9" stroke-width="4.66667" d="M 293.505,651.505 L 366.272,608.063"/>
			<path id="dp_path143" fill="none" fill-rule="evenodd" stroke="#c9c9c9" stroke-width="4.66667" d="M 293.505,563.656 L 366.272,520.215"/>
			<path id="dp_path144" fill="none" fill-rule="evenodd" stroke="#c9c9c9" stroke-width="4.66667" d="M 289.743,478.704 L 362.509,435.263"/>
			<path id="dp_path145" fill="none" fill-rule="evenodd" stroke="#c9c9c9" stroke-width="1.33333" d="M 349.9,521.488 L 368.981,549.403"/>
			<path id="dp_path146" fill="none" fill-rule="evenodd" stroke="#c9c9c9" stroke-width="1.33333" d="M 349.764,523.105 L 331.036,549.403"/>
			<path id="dp_path147" fill="none" fill-rule="evenodd" stroke="#c9c9c9" stroke-width="1.33333" d="M 330.537,549.007 L 310.067,522.047"/>
			<path id="dp_path148" fill="none" fill-rule="evenodd" stroke="#c9c9c9" stroke-width="1.33333" d="M 311.565,522.84 L 292.093,549.007"/>
			<path id="dp_path149" fill="none" fill-rule="evenodd" stroke="#c9c9c9" stroke-width="1.33333" d="M 349.9,551.385 L 368.981,523.471"/>
			<path id="dp_path150" fill="none" fill-rule="evenodd" stroke="#c9c9c9" stroke-width="1.33333" d="M 349.764,549.768 L 331.036,523.471"/>
			<path id="dp_path151" fill="none" fill-rule="evenodd" stroke="#c9c9c9" stroke-width="1.33333" d="M 330.537,523.868 L 310.067,550.827"/>
			<path id="dp_path152" fill="none" fill-rule="evenodd" stroke="#c9c9c9" stroke-width="1.33333" d="M 311.565,550.033 L 292.093,523.868"/>
			<path id="dp_path153" fill="none" fill-rule="evenodd" stroke="#c9c9c9" stroke-width="1.33333" d="M 270.949,522.84 L 288.86,545.497"/>
			<path id="dp_path154" fill="none" fill-rule="evenodd" stroke="#c9c9c9" stroke-width="1.33333" d="M 270.949,547.107 L 288.86,524.449"/>
			<path id="dp_path155" fill="none" fill-rule="evenodd" stroke="#c9c9c9" stroke-width="1.33333" d="M 530.485,387.6 L 553.577,415.515"/>
			<path id="dp_path156" fill="none" fill-rule="evenodd" stroke="#c9c9c9" stroke-width="1.33333" d="M 530.321,389.217 L 507.657,415.515"/>
			<path id="dp_path157" fill="none" fill-rule="evenodd" stroke="#c9c9c9" stroke-width="1.33333" d="M 507.052,415.119 L 482.28,388.16"/>
			<path id="dp_path158" fill="none" fill-rule="evenodd" stroke="#c9c9c9" stroke-width="1.33333" d="M 484.092,388.952 L 460.528,415.119"/>
			<path id="dp_path159" fill="none" fill-rule="evenodd" stroke="#c9c9c9" stroke-width="1.33333" d="M 530.485,417.499 L 553.577,389.584"/>
			<path id="dp_path160" fill="none" fill-rule="evenodd" stroke="#c9c9c9" stroke-width="1.33333" d="M 530.321,415.881 L 507.657,389.584"/>
			<path id="dp_path161" fill="none" fill-rule="evenodd" stroke="#c9c9c9" stroke-width="1.33333" d="M 507.052,389.98 L 482.28,416.94"/>
			<path id="dp_path162" fill="none" fill-rule="evenodd" stroke="#c9c9c9" stroke-width="1.33333" d="M 484.092,416.147 L 460.528,389.98"/>
			<path id="dp_path163" fill="none" fill-rule="evenodd" stroke="#c9c9c9" stroke-width="1.33333" d="M 551.925,387.893 L 200.925,387.893 L 200.925,416.853 L 551.925,416.853 L 551.925,387.893M 528.525,387.893 L 528.525,416.853M 505.125,387.893 L 505.125,416.853M 481.725,387.893 L 481.725,416.853M 458.325,387.893 L 458.325,416.853M 434.925,387.893 L 434.925,416.853M 411.525,387.893 L 411.525,416.853M 388.125,387.893 L 388.125,416.853M 364.725,387.893 L 364.725,416.853M 341.325,387.893 L 341.325,416.853M 317.925,387.893 L 317.925,416.853M 294.525,387.893 L 294.525,416.853M 271.125,387.893 L 271.125,416.853M 247.725,387.893 L 247.725,416.853M 224.325,387.893 L 224.325,416.853M 551.925,395.133 L 200.925,395.133M 551.925,402.373 L 200.925,402.373M 551.925,409.613 L 200.925,409.613"/>
			<path id="dp_path164" fill="none" fill-rule="evenodd" stroke="#c9c9c9" stroke-width="1.33333" d="M 436.885,386.796 L 459.977,414.711"/>
			<path id="dp_path165" fill="none" fill-rule="evenodd" stroke="#c9c9c9" stroke-width="1.33333" d="M 436.72,388.413 L 414.056,414.711"/>
			<path id="dp_path166" fill="none" fill-rule="evenodd" stroke="#c9c9c9" stroke-width="1.33333" d="M 413.452,414.315 L 388.679,387.355"/>
			<path id="dp_path167" fill="none" fill-rule="evenodd" stroke="#c9c9c9" stroke-width="1.33333" d="M 390.492,388.148 L 366.927,414.315"/>
			<path id="dp_path168" fill="none" fill-rule="evenodd" stroke="#c9c9c9" stroke-width="1.33333" d="M 436.885,416.693 L 459.977,388.779"/>
			<path id="dp_path169" fill="none" fill-rule="evenodd" stroke="#c9c9c9" stroke-width="1.33333" d="M 436.72,415.076 L 414.056,388.779"/>
			<path id="dp_path170" fill="none" fill-rule="evenodd" stroke="#c9c9c9" stroke-width="1.33333" d="M 413.452,389.176 L 388.679,416.135"/>
			<path id="dp_path171" fill="none" fill-rule="evenodd" stroke="#c9c9c9" stroke-width="1.33333" d="M 390.492,415.341 L 366.927,389.176"/>
			<path id="dp_path172" fill="none" fill-rule="evenodd" stroke="#c9c9c9" stroke-width="1.33333" d="M 343.284,385.992 L 366.376,413.907"/>
			<path id="dp_path173" fill="none" fill-rule="evenodd" stroke="#c9c9c9" stroke-width="1.33333" d="M 343.12,387.609 L 320.456,413.907"/>
			<path id="dp_path174" fill="none" fill-rule="evenodd" stroke="#c9c9c9" stroke-width="1.33333" d="M 319.852,413.509 L 295.079,386.551"/>
			<path id="dp_path175" fill="none" fill-rule="evenodd" stroke="#c9c9c9" stroke-width="1.33333" d="M 296.891,387.344 L 273.327,413.509"/>
			<path id="dp_path176" fill="none" fill-rule="evenodd" stroke="#c9c9c9" stroke-width="1.33333" d="M 343.284,415.889 L 366.376,387.975"/>
			<path id="dp_path177" fill="none" fill-rule="evenodd" stroke="#c9c9c9" stroke-width="1.33333" d="M 343.12,414.272 L 320.456,387.975"/>
			<path id="dp_path178" fill="none" fill-rule="evenodd" stroke="#c9c9c9" stroke-width="1.33333" d="M 319.852,388.371 L 295.079,415.331"/>
			<path id="dp_path179" fill="none" fill-rule="evenodd" stroke="#c9c9c9" stroke-width="1.33333" d="M 296.891,414.537 L 273.327,388.371"/>
			<path id="dp_path180" fill="none" fill-rule="evenodd" stroke="#c9c9c9" stroke-width="1.33333" d="M 253.08,386.796 L 270.023,414.711"/>
			<path id="dp_path181" fill="none" fill-rule="evenodd" stroke="#c9c9c9" stroke-width="1.33333" d="M 252.959,388.413 L 236.329,414.711"/>
			<path id="dp_path182" fill="none" fill-rule="evenodd" stroke="#c9c9c9" stroke-width="1.33333" d="M 235.887,414.315 L 217.709,387.355"/>
			<path id="dp_path183" fill="none" fill-rule="evenodd" stroke="#c9c9c9" stroke-width="1.33333" d="M 219.04,388.148 L 201.749,414.315"/>
			<path id="dp_path184" fill="none" fill-rule="evenodd" stroke="#c9c9c9" stroke-width="1.33333" d="M 253.08,416.693 L 270.023,388.779"/>
			<path id="dp_path185" fill="none" fill-rule="evenodd" stroke="#c9c9c9" stroke-width="1.33333" d="M 252.959,415.076 L 236.329,388.779"/>
			<path id="dp_path186" fill="none" fill-rule="evenodd" stroke="#c9c9c9" stroke-width="1.33333" d="M 235.887,389.176 L 217.709,416.135"/>
			<path id="dp_path187" fill="none" fill-rule="evenodd" stroke="#c9c9c9" stroke-width="1.33333" d="M 219.04,415.341 L 201.749,389.176"/>
			<path id="dp_path188" fill="none" fill-rule="evenodd" stroke="#c9c9c9" stroke-width="4.66667" d="M 223.872,409.557 L 553.264,406.661"/>
			<path id="dp_path189" fill="none" fill-rule="evenodd" stroke="#c9c9c9" stroke-width="1.33333" d="M 424.104,520.721 L 443.185,548.636"/>
			<path id="dp_path190" fill="none" fill-rule="evenodd" stroke="#c9c9c9" stroke-width="1.33333" d="M 423.968,522.339 L 405.24,548.636"/>
			<path id="dp_path191" fill="none" fill-rule="evenodd" stroke="#c9c9c9" stroke-width="1.33333" d="M 404.741,548.24 L 384.271,521.281"/>
			<path id="dp_path192" fill="none" fill-rule="evenodd" stroke="#c9c9c9" stroke-width="1.33333" d="M 385.768,522.073 L 366.297,548.24"/>
			<path id="dp_path193" fill="none" fill-rule="evenodd" stroke="#c9c9c9" stroke-width="1.33333" d="M 424.104,550.62 L 443.185,522.705"/>
			<path id="dp_path194" fill="none" fill-rule="evenodd" stroke="#c9c9c9" stroke-width="1.33333" d="M 423.968,549.003 L 405.24,522.705"/>
			<path id="dp_path195" fill="none" fill-rule="evenodd" stroke="#c9c9c9" stroke-width="1.33333" d="M 404.741,523.101 L 384.271,550.061"/>
			<path id="dp_path196" fill="none" fill-rule="evenodd" stroke="#c9c9c9" stroke-width="1.33333" d="M 385.768,549.268 L 366.297,523.101"/>
			<path id="dp_path197" fill="none" fill-rule="evenodd" stroke="#c9c9c9" stroke-width="1.33333" d="M 441.82,521.015 L 441.82,549.975 L 441.82,521.015M 422.484,521.015 L 422.484,549.975M 403.148,521.015 L 403.148,549.975M 383.812,521.015 L 383.812,549.975M 364.476,521.015 L 364.476,549.975M 345.14,521.015 L 345.14,549.975M 325.804,521.015 L 325.804,549.975M 306.468,521.015 L 306.468,549.975M 287.133,521.015 L 287.133,549.975M 267.797,521.015 L 267.797,549.975"/>
			<path id="dp_path198" fill="none" fill-rule="evenodd" stroke="#c9c9c9" stroke-width="4.66667" d="M 264.089,540.099 L 441.303,541.352"/>
			<path id="dp_path199" fill="none" fill-rule="evenodd" stroke="#c9c9c9" stroke-width="1.33333" d="M 439.641,520.425 L 267.116,520.425"/>
			<path id="dp_path200" fill="none" fill-rule="evenodd" stroke="#c9c9c9" stroke-width="1.33333" d="M 441.155,546.152 L 264.089,547.665"/>
		</g>
	</g>
</svg>