<?xml version="1.0" encoding="UTF-8" standalone="no"?>
<svg version="1.1" xmlns="http://www.w3.org/2000/svg" xmlns:xlink="http://www.w3.org/1999/xlink" width="226.724" height="269.617">
	<g id="dp_dp001" transform="matrix(1,0,0,1,-36.48,-1.84)">
		<path id="dp_path002" fill="white" fill-rule="evenodd" stroke="none" stroke-width="0" d="M 217.709,113.956 L 142.055,113.956 L 142.053,1.84 C 143.767,130.425 132.127,111.703 217.709,113.956 Z "/>
		<path id="dp_path003" fill="white" fill-rule="evenodd" stroke="none" stroke-width="0" d="M 217.709,113.411 L 142.055,113.411 L 142.053,225.527 C 143.767,96.9413 132.127,115.664 217.709,113.411 Z "/>
		<path id="dp_path004" fill="white" fill-rule="evenodd" stroke="none" stroke-width="0" d="M 66.8653,114.441 L 142.52,114.441 L 142.521,2.32533 C 140.808,130.911 152.448,112.188 66.8653,114.441 Z "/>
		<path id="dp_path005" fill="white" fill-rule="evenodd" stroke="none" stroke-width="0" d="M 66.8653,113.896 L 142.52,113.896 L 142.521,226.012 C 140.808,97.4267 152.448,116.149 66.8653,113.896 Z "/>
		<path id="dp_path006" fill="white" fill-rule="evenodd" stroke="none" stroke-width="0" d="M 262.629,56.7347 L 239.319,56.7347 L 239.319,22.1907 C 239.847,61.8093 236.26,56.04 262.629,56.7347 Z "/>
		<path id="dp_path007" fill="white" fill-rule="evenodd" stroke="none" stroke-width="0" d="M 262.629,56.5667 L 239.319,56.5667 L 239.319,91.1107 C 239.847,51.492 236.26,57.2613 262.629,56.5667 Z "/>
		<path id="dp_path008" fill="white" fill-rule="evenodd" stroke="none" stroke-width="0" d="M 216.152,56.884 L 239.463,56.884 L 239.463,22.34 C 238.935,61.9587 242.521,56.1893 216.152,56.884 Z "/>
		<path id="dp_path009" fill="white" fill-rule="evenodd" stroke="none" stroke-width="0" d="M 216.152,56.716 L 239.463,56.716 L 239.463,91.26 C 238.935,51.6413 242.521,57.4107 216.152,56.716 Z "/>
		<path id="dp_path010" fill="white" fill-rule="evenodd" stroke="none" stroke-width="0" d="M 225.885,211.045 L 184.561,211.045 L 184.56,149.805 C 185.496,220.041 179.137,209.815 225.885,211.045 Z "/>
		<path id="dp_path011" fill="white" fill-rule="evenodd" stroke="none" stroke-width="0" d="M 225.885,210.748 L 184.561,210.748 L 184.56,271.988 C 185.496,201.752 179.137,211.979 225.885,210.748 Z "/>
		<path id="dp_path012" fill="white" fill-rule="evenodd" stroke="none" stroke-width="0" d="M 143.491,211.311 L 184.815,211.311 L 184.816,150.071 C 183.88,220.307 190.237,210.08 143.491,211.311 Z "/>
		<path id="dp_path013" fill="white" fill-rule="evenodd" stroke="none" stroke-width="0" d="M 143.491,211.012 L 184.815,211.012 L 184.816,272.253 C 183.88,202.017 190.237,212.244 143.491,211.012 Z "/>
		<path id="dp_path014" fill="white" fill-rule="evenodd" stroke="none" stroke-width="0" d="M 104.652,163.483 L 70.46,163.483 L 70.46,112.815 C 71.2333,170.925 65.9733,162.464 104.652,163.483 Z "/>
		<path id="dp_path015" fill="white" fill-rule="evenodd" stroke="none" stroke-width="0" d="M 104.652,163.236 L 70.46,163.236 L 70.46,213.904 C 71.2333,155.793 65.9733,164.255 104.652,163.236 Z "/>
		<path id="dp_path016" fill="white" fill-rule="evenodd" stroke="none" stroke-width="0" d="M 36.48,163.701 L 70.6707,163.701 L 70.6707,113.033 C 69.8973,171.144 75.1573,162.684 36.48,163.701 Z "/>
		<path id="dp_path017" fill="white" fill-rule="evenodd" stroke="none" stroke-width="0" d="M 36.48,163.455 L 70.6707,163.455 L 70.6707,214.124 C 69.8973,156.012 75.1573,164.473 36.48,163.455 Z "/>
	</g>
</svg>