<?xml version="1.0" encoding="utf-8"?>
<!-- Generator: Adobe Illustrator 19.0.0, SVG Export Plug-In . SVG Version: 6.00 Build 0)  -->
<svg version="1.1" xmlns="http://www.w3.org/2000/svg" xmlns:xlink="http://www.w3.org/1999/xlink" x="0px" y="0px"
	 viewBox="0 0 20 50" style="enable-background:new 0 0 20 50;" xml:space="preserve">
<style type="text/css">
	.st0{fill:#EF4136;}
	.st1{fill:#EF4136;stroke:#000000;stroke-width:0.25;stroke-miterlimit:10;}
	.st2{fill:#FBB040;}
	.st3{fill:#FFF200;}
</style>
<g id="Layer_2">
</g>
<g id="Layer_1">
	<g id="XMLID_3_">
		<polygon id="XMLID_7_" class="st0" points="3.3,3.3 5.3,32.9 9.4,46.4 9.5,48.2 9.9,49.2 10,49.4 10.5,48.2 12,43.3 15.1,29.4 
			17.1,12.8 16.6,2.5 14.7,0.7 5.4,0.7 		"/>
		<path id="XMLID_4_" class="st1" d="M14.7,0.7c0,0,13.5,2.3-4.6,48.9"/>
		<path id="XMLID_9_" class="st1" d="M10,49.5C-4.4,12.2,1.3,3.3,4.2,1.3c0.7-0.5,1.2-0.6,1.2-0.6"/>
		<line id="XMLID_6_" class="st1" x1="14.8" y1="0.7" x2="5.3" y2="0.7"/>
	</g>
	<g id="XMLID_8_">
		<polygon id="XMLID_13_" class="st2" points="4.7,2.9 6.3,27.4 9.7,38.5 9.8,40 10.1,40.8 10.2,41 10.6,40 11.8,36 14.4,24.5 
			16.1,10.8 15.6,2.3 14,0.8 6.4,0.8 		"/>
		<path id="XMLID_12_" class="st2" d="M14,0.8c0,0,11.1,1.9-3.8,40.3"/>
		<path id="XMLID_11_" class="st2" d="M10.2,41.1C-1.7,10.3,3,3,5.4,1.3c0.6-0.4,1-0.5,1-0.5"/>
		<line id="XMLID_10_" class="st2" x1="14.1" y1="0.8" x2="6.3" y2="0.8"/>
	</g>
	<g id="XMLID_14_">
		<polygon id="XMLID_18_" class="st3" points="6,2.4 7.3,20.7 9.8,29.1 9.9,30.2 10.1,30.8 10.2,30.9 10.5,30.2 11.4,27.2 
			13.3,18.5 14.6,8.3 14.3,1.9 13.1,0.8 7.4,0.8 		"/>
		<path id="XMLID_17_" class="st3" d="M13.1,0.8c0,0,8.3,1.4-2.9,30.2"/>
		<path id="XMLID_16_" class="st3" d="M10.2,31C1.3,7.9,4.8,2.4,6.6,1.2C7,0.9,7.4,0.8,7.4,0.8"/>
		<line id="XMLID_15_" class="st3" x1="13.1" y1="0.8" x2="7.3" y2="0.8"/>
	</g>
</g>
</svg>
