<?xml version="1.0" encoding="utf-8"?>
<!-- Generator: Adobe Illustrator 19.0.0, SVG Export Plug-In . SVG Version: 6.00 Build 0)  -->
<svg version="1.1" id="Layer_1" xmlns="http://www.w3.org/2000/svg" xmlns:xlink="http://www.w3.org/1999/xlink" x="0px" y="0px"
	 viewBox="0 0 1080 1080" style="enable-background:new 0 0 1080 1080;" xml:space="preserve">
<style type="text/css">
	.st0{clip-path:url(#XMLID_23_);fill:#EF4136;}
	.st1{clip-path:url(#XMLID_23_);}
	.st2{clip-path:url(#XMLID_69_);fill:#EF4136;}
	.st3{clip-path:url(#XMLID_69_);fill:none;stroke:#000000;stroke-width:0.25;stroke-miterlimit:10;}
	.st4{clip-path:url(#XMLID_69_);fill:#FBB040;}
	.st5{clip-path:url(#XMLID_69_);fill:#FFF200;}
	.st6{clip-path:url(#XMLID_70_);}
	.st7{clip-path:url(#XMLID_71_);fill:#E6E7E8;}
	.st8{clip-path:url(#XMLID_71_);fill:#A7A9AC;}
	.st9{clip-path:url(#XMLID_71_);fill:#BCBEC0;}
	.st10{clip-path:url(#XMLID_71_);fill:none;stroke:#000000;stroke-width:0.324;stroke-miterlimit:10;}
	.st11{clip-path:url(#XMLID_71_);fill:#74CAC3;}
	.st12{clip-path:url(#XMLID_71_);fill:none;stroke:#000000;stroke-width:0.273;stroke-miterlimit:10;}
	.st13{clip-path:url(#XMLID_71_);fill:none;stroke:#000000;stroke-width:0.871;stroke-miterlimit:10;}
	.st14{clip-path:url(#XMLID_71_);fill:#ED1C24;}
	.st15{clip-path:url(#XMLID_71_);fill:none;stroke:#000000;stroke-width:0.327;stroke-miterlimit:10;}
	.st16{clip-path:url(#XMLID_71_);}
</style>
<g id="XMLID_2_">
	<g>
		<defs>
			<rect id="XMLID_6_" x="448.4" y="608.2" width="178.1" height="445.3"/>
		</defs>
		<clipPath id="XMLID_23_">
			<use xlink:href="#XMLID_6_"  style="overflow:visible;"/>
		</clipPath>
		<polygon id="XMLID_22_" class="st0" points="496.8,614.1 477.9,637.2 495.9,901.5 532.5,1021.7 533.4,1037.7 536.7,1046.3 
			537.9,1048.1 542.2,1037.7 555.1,994.1 582.8,869.8 600.9,722.6 596.5,630.2 578.9,614.1 		"/>
		<g class="st1">
			<defs>
				<rect id="XMLID_7_" x="448.4" y="608.2" width="178.1" height="445.3"/>
			</defs>
			<clipPath id="XMLID_69_">
				<use xlink:href="#XMLID_7_"  style="overflow:visible;"/>
			</clipPath>
			<path id="XMLID_21_" class="st2" d="M578.9,614.1c0,0,120.2,20.9-41.2,435.3"/>
			<path id="XMLID_20_" class="st3" d="M578.9,614.1c0,0,120.2,20.9-41.2,435.3"/>
			<path id="XMLID_19_" class="st2" d="M537.9,1049.4C409,717.2,460.4,637.9,485.8,619.5c6.3-4.6,11-5.4,11-5.4"/>
			<path id="XMLID_18_" class="st3" d="M537.9,1049.4C409,717.2,460.4,637.9,485.8,619.5c6.3-4.6,11-5.4,11-5.4"/>
			<line id="XMLID_17_" class="st2" x1="579.8" y1="614.1" x2="495.9" y2="614.4"/>
			<line id="XMLID_16_" class="st3" x1="579.8" y1="614.1" x2="495.9" y2="614.4"/>
			<polygon id="XMLID_15_" class="st4" points="490,634.3 504.8,852.3 534.9,951.4 535.7,964.6 538.4,971.7 539.4,973.2 543,964.6 
				553.6,928.6 576.5,826.1 591.4,704.7 587.7,628.5 573.2,615.3 505.6,615.3 			"/>
			<path id="XMLID_14_" class="st4" d="M573.2,615.3c0,0,99.2,17.2-34,359"/>
			<path id="XMLID_13_" class="st4" d="M539.4,974.3c-106.3-274-63.9-339.4-42.9-354.6c5.2-3.7,9.1-4.4,9.1-4.4"/>
			<line id="XMLID_12_" class="st4" x1="574" y1="615.3" x2="504.8" y2="615.5"/>
			<polygon id="XMLID_11_" class="st5" points="502.3,629.5 513.4,793 536,867.3 536.6,877.2 538.6,882.5 539.4,883.6 542,877.2 
				550,850.2 567.2,773.3 578.3,682.3 575.6,625.2 564.7,615.3 514,615.3 			"/>
			<path id="XMLID_10_" class="st5" d="M564.7,615.3c0,0,74.3,12.9-25.5,269.1"/>
			<path id="XMLID_9_" class="st5" d="M539.4,884.4C459.7,679,491.4,630,507.2,618.6c3.9-2.8,6.8-3.3,6.8-3.3"/>
			<line id="XMLID_8_" class="st5" x1="565.3" y1="615.3" x2="513.4" y2="615.4"/>
		</g>
	</g>
</g>
<g id="XMLID_1_">
	<g>
		<defs>
			<rect id="XMLID_24_" x="315" y="26.5" width="450" height="921.7"/>
		</defs>
		<clipPath id="XMLID_70_">
			<use xlink:href="#XMLID_24_"  style="overflow:visible;"/>
		</clipPath>
		<g class="st6">
			<defs>
				<rect id="XMLID_25_" x="315" y="26.5" width="450" height="921.7"/>
			</defs>
			<clipPath id="XMLID_71_">
				<use xlink:href="#XMLID_25_"  style="overflow:visible;"/>
			</clipPath>
			<path id="XMLID_68_" class="st7" d="M640.2,642.5c36.7-66.8,58.1-147.4,58.1-234.1c0-149-63.2-279.9-158.5-354.1
				c-95.2,74.3-158.5,205.1-158.5,354.1c0,86.7,21.4,167.3,58.1,234.1H640.2z"/>
			<path id="XMLID_67_" class="st8" d="M546.4,52.4C567.2,73.2,695.5,205.8,683.4,403c-7,114.3-57.9,195.7-83.6,231.4h39.3
				c36.7-66.8,58.1-147.4,58.1-234.1C697.1,255.4,637.3,127.6,546.4,52.4"/>
			<path id="XMLID_66_" class="st9" d="M413.9,576h251.9c0,0-22.5,58.8-27.5,61.6c-5.1,2.8,0,0,0,0H440.5
				C440.5,637.6,413.5,584.1,413.9,576"/>
			<path id="XMLID_65_" class="st10" d="M413.9,576h251.9c0,0-22.5,58.8-27.5,61.6c-5.1,2.8,0,0,0,0H440.5
				C440.5,637.6,413.5,584.1,413.9,576"/>
			<polyline id="XMLID_64_" class="st9" points="446.4,156.6 539.8,156.6 632.7,156.6 			"/>
			<polyline id="XMLID_63_" class="st10" points="446.4,156.6 539.8,156.6 632.7,156.6 			"/>
			<path id="XMLID_62_" class="st9" d="M615.1,325c0,43.1-33.8,78-75.5,78S464,368.1,464,325s33.8-78,75.5-78S615.1,282,615.1,325"
				/>
			<path id="XMLID_61_" class="st10" d="M615.1,325c0,43.1-33.8,78-75.5,78S464,368.1,464,325s33.8-78,75.5-78S615.1,282,615.1,325z
				"/>
			<path id="XMLID_60_" class="st11" d="M603.5,325c0,36.2-28.5,65.6-63.7,65.6c-35.2,0-63.7-29.4-63.7-65.6
				c0-36.2,28.5-65.6,63.7-65.6C575,259.4,603.5,288.8,603.5,325"/>
			<path id="XMLID_59_" class="st12" d="M603.5,325c0,36.2-28.5,65.6-63.7,65.6c-35.2,0-63.7-29.4-63.7-65.6
				c0-36.2,28.5-65.6,63.7-65.6C575,259.4,603.5,288.8,603.5,325z"/>
			<path id="XMLID_58_" class="st12" d="M400.5,263.6c5.8-1.2,12.9-2.3,21-2.4c9.8-0.2,18.3,1,24.9,2.4v177.5
				c-8.5,1.9-19.4,3.4-31.9,3.4c-12.6,0-23.5-1.6-32.1-3.4c-0.8-15.8-1.3-36.1-0.2-59.8c0.7-16.1,1.9-27.9,3-38.1
				c4.4-42.5,9.8-62.1,12.3-70.4C398.7,268.9,399.8,265.7,400.5,263.6"/>
			<path id="XMLID_57_" class="st13" d="M639.9,637.6c36.7-66.8,58.1-147.4,58.1-234.1c0-149-63.2-279.9-158.5-354.1
				c-95.2,74.3-158.5,205.1-158.5,354.1c0,86.7,21.4,167.3,58.1,234.1H639.9z"/>
			<polygon id="XMLID_56_" class="st14" points="426.7,613.1 381.1,664.1 381.1,862.9 322.8,637.6 404.7,557.2 			"/>
			<polygon id="XMLID_55_" class="st13" points="426.7,613.1 381.1,664.1 381.1,862.9 322.8,637.6 404.7,557.2 			"/>
			<polygon id="XMLID_54_" class="st14" points="653.3,613.6 698.9,664.6 698.9,863.4 757.2,638 675.3,557.7 			"/>
			<polygon id="XMLID_53_" class="st13" points="653.3,613.6 698.9,664.6 698.9,863.4 757.2,638 675.3,557.7 			"/>
			<path id="XMLID_52_" class="st14" d="M538.4,892.4c-6.1-111.7-12.3-223.5-18.4-335.2h39.5C552.5,668.9,545.5,780.7,538.4,892.4"
				/>
			<path id="XMLID_51_" class="st13" d="M538.4,892.4c-6.1-111.7-12.3-223.5-18.4-335.2h39.5C552.5,668.9,545.5,780.7,538.4,892.4z"
				/>
			<line id="XMLID_50_" class="st14" x1="523.1" y1="612.1" x2="555.9" y2="612.1"/>
			<line id="XMLID_49_" class="st13" x1="523.1" y1="612.1" x2="555.9" y2="612.1"/>
			<line id="XMLID_48_" class="st7" x1="539.8" y1="156.6" x2="539.5" y2="247.1"/>
			<line id="XMLID_47_" class="st15" x1="539.8" y1="156.6" x2="539.5" y2="247.1"/>
			<line id="XMLID_46_" class="st7" x1="539.5" y1="403" x2="539.5" y2="557.2"/>
			<line id="XMLID_45_" class="st15" x1="539.5" y1="403" x2="539.5" y2="557.2"/>
			<line id="XMLID_44_" class="st7" x1="468.1" y1="576" x2="487.1" y2="637.6"/>
			<line id="XMLID_43_" class="st15" x1="468.1" y1="576" x2="487.1" y2="637.6"/>
			<line id="XMLID_42_" class="st7" x1="606.5" y1="576" x2="589.9" y2="637.6"/>
			<line id="XMLID_41_" class="st15" x1="606.5" y1="576" x2="589.9" y2="637.6"/>
			<path id="XMLID_40_" class="st16" d="M562.6,418.1c0,3.8-3,6.9-6.6,6.9s-6.6-3.1-6.6-6.9c0-3.8,3-6.9,6.6-6.9
				S562.6,414.3,562.6,418.1"/>
			<path id="XMLID_39_" class="st16" d="M562.6,220.3c0,3.8-3,6.9-6.6,6.9s-6.6-3.1-6.6-6.9c0-3.8,3-6.9,6.6-6.9
				S562.6,216.5,562.6,220.3"/>
			<path id="XMLID_38_" class="st16" d="M562.6,188c0,3.8-3,6.9-6.6,6.9s-6.6-3.1-6.6-6.9c0-3.8,3-6.9,6.6-6.9
				S562.6,184.2,562.6,188"/>
			<path id="XMLID_37_" class="st16" d="M546.4,141.6c0,3.8-3,6.9-6.6,6.9s-6.6-3.1-6.6-6.9c0-3.8,3-6.9,6.6-6.9
				S546.4,137.9,546.4,141.6"/>
			<path id="XMLID_36_" class="st16" d="M569.2,141.6c0,3.1-2.4,5.6-5.4,5.6c-3,0-5.4-2.5-5.4-5.6c0-3.1,2.4-5.6,5.4-5.6
				C566.7,136.1,569.2,138.6,569.2,141.6"/>
			<path id="XMLID_35_" class="st16" d="M584.9,141.6c0,1.9-1.5,3.5-3.4,3.5s-3.4-1.6-3.4-3.5c0-1.9,1.5-3.5,3.4-3.5
				S584.9,139.7,584.9,141.6"/>
			<path id="XMLID_34_" class="st16" d="M504.1,141.6c0,1.9-1.5,3.5-3.4,3.5c-1.9,0-3.4-1.6-3.4-3.5c0-1.9,1.5-3.5,3.4-3.5
				C502.6,138.1,504.1,139.7,504.1,141.6"/>
			<path id="XMLID_33_" class="st16" d="M522.1,141.6c0,3.1-2.4,5.6-5.4,5.6c-3,0-5.4-2.5-5.4-5.6c0-3.1,2.4-5.6,5.4-5.6
				C519.7,136.1,522.1,138.6,522.1,141.6"/>
			<path id="XMLID_32_" class="st16" d="M562.6,443.2c0,3.8-3,6.9-6.6,6.9s-6.6-3.1-6.6-6.9s3-6.9,6.6-6.9S562.6,439.4,562.6,443.2"
				/>
			<path id="XMLID_31_" class="st16" d="M562.6,468.2c0,3.8-3,6.9-6.6,6.9s-6.6-3.1-6.6-6.9c0-3.8,3-6.9,6.6-6.9
				S562.6,464.5,562.6,468.2"/>
			<path id="XMLID_30_" class="st16" d="M562.6,492.6c0,3.8-3,6.9-6.6,6.9s-6.6-3.1-6.6-6.9s3-6.9,6.6-6.9S562.6,488.8,562.6,492.6"
				/>
			<path id="XMLID_29_" class="st16" d="M441.8,283.5c0,2.5-1.9,4.5-4.3,4.5s-4.3-2-4.3-4.5c0-2.5,1.9-4.5,4.3-4.5
				S441.8,281,441.8,283.5"/>
			<path id="XMLID_28_" class="st16" d="M441.8,352.8c0,2.5-1.9,4.5-4.3,4.5s-4.3-2-4.3-4.5c0-2.5,1.9-4.5,4.3-4.5
				S441.8,350.4,441.8,352.8"/>
			<path id="XMLID_27_" class="st16" d="M441.8,423.6c0,2.5-1.9,4.5-4.3,4.5s-4.3-2-4.3-4.5c0-2.5,1.9-4.5,4.3-4.5
				S441.8,421.1,441.8,423.6"/>
			<path id="XMLID_26_" class="st16" d="M562.6,519.1c0,3.8-3,6.9-6.6,6.9s-6.6-3.1-6.6-6.9c0-3.8,3-6.9,6.6-6.9
				S562.6,515.3,562.6,519.1"/>
		</g>
	</g>
</g>
</svg>
