<?xml version="1.0" encoding="utf-8"?>
<!-- Generator: Adobe Illustrator 19.0.0, SVG Export Plug-In . SVG Version: 6.00 Build 0)  -->
<svg version="1.1" xmlns="http://www.w3.org/2000/svg" xmlns:xlink="http://www.w3.org/1999/xlink" x="0px" y="0px"
	 viewBox="0 0 48.3 99" style="enable-background:new 0 0 48.3 99;" xml:space="preserve">
<style type="text/css">
	.st0{fill:#E6E7E8;}
	.st1{fill:#A7A9AC;}
	.st2{fill:#BCBEC0;stroke:#000000;stroke-width:0.3243;stroke-miterlimit:10;}
	.st3{fill:#75CAC3;stroke:#000000;stroke-width:0.2732;stroke-miterlimit:10;}
	.st4{fill:none;stroke:#000000;stroke-width:0.2732;stroke-miterlimit:10;}
	.st5{fill:none;stroke:#000000;stroke-width:0.8714;stroke-miterlimit:10;}
	.st6{fill:#ED1C24;stroke:#000000;stroke-width:0.8714;stroke-miterlimit:10;}
	.st7{fill:#E6E7E8;stroke:#000000;stroke-width:0.3268;stroke-miterlimit:10;}
</style>
<g id="Layer_1">
	<path id="XMLID_86_" class="st0" d="M34.9,66.2c3.9-7.2,6.2-15.8,6.2-25.1c0-16-6.8-30.1-17-38c-10.2,8-17,22-17,38
		c0,9.3,2.3,18,6.2,25.1H34.9z"/>
	<g id="Layer_2">
		<path id="XMLID_35_" class="st1" d="M24.9,2.8c2.2,2.2,16,16.5,14.7,37.7c-0.8,12.3-6.2,21-9,24.9h4.2c3.9-7.2,6.2-15.8,6.2-25.1
			C41,24.6,34.6,10.9,24.9,2.8z"/>
		<path id="XMLID_8_" class="st2" d="M10.6,59h27.1c0,0-2.4,6.3-3,6.6c-0.5,0.3,0,0,0,0H13.5C13.5,65.6,10.6,59.9,10.6,59"/>
		<polyline id="XMLID_10_" class="st2" points="14.1,14 24.1,14 34.1,14 		"/>
		<ellipse id="XMLID_6_" class="st2" cx="24.1" cy="32.1" rx="8.1" ry="8.4"/>
		<ellipse id="XMLID_12_" class="st3" cx="24.1" cy="32.1" rx="6.8" ry="7"/>
		<path id="XMLID_11_" class="st4" d="M9.2,25.5c0.6-0.1,1.4-0.2,2.3-0.3c1.1,0,2,0.1,2.7,0.3c0,6.4,0,12.7,0,19.1
			c-0.9,0.2-2.1,0.4-3.4,0.4c-1.4,0-2.5-0.2-3.4-0.4c-0.1-1.7-0.1-3.9,0-6.4c0.1-1.7,0.2-3,0.3-4.1c0.5-4.6,1.1-6.7,1.3-7.6
			C9,26,9.1,25.7,9.2,25.5"/>
	</g>
	<path id="XMLID_85_" class="st5" d="M34.9,65.6c3.9-7.2,6.2-15.8,6.2-25.1c0-16-6.8-30.1-17-38c-10.2,8-17,22-17,38
		c0,9.3,2.3,18,6.2,25.1H34.9z"/>
	<polygon id="XMLID_84_" class="st6" points="12,63 7.1,68.5 7.1,89.8 0.8,65.6 9.6,57 	"/>
	<polygon id="XMLID_83_" class="st6" points="36.3,63.1 41.2,68.5 41.2,89.9 47.5,65.7 38.7,57 	"/>
	<path id="XMLID_82_" class="st6" d="M24,93c-0.7-12-1.3-24-2-36h4.2C25.5,69,24.8,81,24,93z"/>
	<line id="XMLID_81_" class="st6" x1="22.4" y1="62.9" x2="25.9" y2="62.9"/>
	<line id="XMLID_80_" class="st7" x1="24.1" y1="14" x2="24.1" y2="23.7"/>
	<line id="XMLID_79_" class="st7" x1="24.1" y1="40.4" x2="24.1" y2="57"/>
	<line id="XMLID_78_" class="st7" x1="16.4" y1="59" x2="18.5" y2="65.6"/>
	<line id="XMLID_77_" class="st7" x1="31.3" y1="59" x2="29.5" y2="65.6"/>
	<ellipse id="XMLID_76_" cx="25.9" cy="42.1" rx="0.7" ry="0.7"/>
	<ellipse id="XMLID_75_" cx="25.9" cy="20.8" rx="0.7" ry="0.7"/>
	<ellipse id="XMLID_74_" cx="25.9" cy="17.3" rx="0.7" ry="0.7"/>
	<ellipse id="XMLID_73_" cx="24.1" cy="12.4" rx="0.7" ry="0.7"/>
	<ellipse id="XMLID_72_" cx="26.7" cy="12.4" rx="0.6" ry="0.6"/>
	<ellipse id="XMLID_71_" cx="28.6" cy="12.4" rx="0.4" ry="0.4"/>
	<ellipse id="XMLID_70_" cx="19.9" cy="12.4" rx="0.4" ry="0.4"/>
	<ellipse id="XMLID_69_" cx="21.7" cy="12.4" rx="0.6" ry="0.6"/>
	<ellipse id="XMLID_68_" cx="25.9" cy="44.8" rx="0.7" ry="0.7"/>
	<ellipse id="XMLID_67_" cx="25.9" cy="47.4" rx="0.7" ry="0.7"/>
	<ellipse id="XMLID_66_" cx="25.9" cy="50.1" rx="0.7" ry="0.7"/>
	<ellipse id="XMLID_65_" cx="13.2" cy="27.6" rx="0.5" ry="0.5"/>
	<ellipse id="XMLID_64_" cx="13.2" cy="35" rx="0.5" ry="0.5"/>
	<ellipse id="XMLID_63_" cx="13.2" cy="42.6" rx="0.5" ry="0.5"/>
	<ellipse id="XMLID_62_" cx="25.9" cy="52.9" rx="0.7" ry="0.7"/>
</g>
<g id="Layer_3">
</g>
</svg>
